<svg width="22" height="22" viewBox="0 0 22 22" fill="none" xmlns="http://www.w3.org/2000/svg">
<path d="M20.1898 6.07271L20.5671 5.5067C20.5671 5.5067 20.8993 5.00603 20.8993 4.3337C20.8993 2.70502 19.1899 2.74802 19.1899 2.74802L15.4656 1.82635L13.4339 0L10.7606 0.661671L9.88387 0.44467L9.21763 1.04367L5.36873 1.99635C5.36873 1.99635 3.8874 1.95935 3.8874 3.37069C3.8874 3.95336 4.1756 4.38736 4.1756 4.38736L4.67097 5.1307L4.23573 5.52137L2.08707 6.05337C2.08707 6.05337 0.377667 6.01037 0.377667 7.63905C0.381085 8.01851 0.478725 8.39237 0.6633 8.73273L0 9.32906L0.347967 9.4544C0.355667 9.4714 0.3586 9.4904 0.373633 9.50406C1.04647 10.1171 0.9911 10.9404 0.895033 11.3851L0.4884 11.7554L3.56877 13.1018L7.79937 19.4501C8.47733 20.4188 9.9165 19.8128 9.9165 19.8128L20.7878 15.0608L20.3812 14.6904C20.2851 14.2458 20.2297 13.4224 20.9026 12.8091C20.9176 12.7954 20.9205 12.7764 20.9282 12.7598L21.2762 12.6341L19.2548 10.8174L21.5758 9.80307L21.2234 9.48206C21.1402 9.09673 21.0921 8.38306 21.6755 7.85172C21.6883 7.83972 21.6905 7.82372 21.6975 7.80872L22 7.69972L20.1898 6.07271ZM18.1053 3.12769L17.6469 3.78703L16.4611 2.72102L18.1053 3.12769ZM13.6312 1.71468L15.3336 3.36902L9.17767 5.39137L7.72383 3.33936L13.6312 1.71468ZM5.03947 5.68404L9.24037 11.9877L1.23713 9.10173L5.03947 5.68404ZM3.28863 6.37304L2.79547 6.81638L2.5982 6.54138L3.28863 6.37304ZM1.7314 6.71771L2.19047 7.36005L1.1957 8.25406C1.11752 8.05671 1.07649 7.8488 1.07433 7.63905C1.07433 7.03038 1.40653 6.79871 1.7314 6.71771ZM1.15647 11.6754L1.16197 11.6561L10.3825 15.3251L1.2342 11.3604C1.24263 11.3154 1.24923 11.2657 1.2562 11.2157L8.4183 13.9424L1.28113 10.9037C1.28253 10.7649 1.27198 10.6261 1.2496 10.4887L7.87857 12.9704L1.1605 10.1334C1.11749 10.002 1.05974 9.87503 0.988167 9.7544L10.1119 13.2961L10.3195 13.6074C10.7474 14.2188 11.5236 14.1058 11.9148 13.9998C12.4557 14.2424 13.4251 14.8038 13.1769 15.6308C13.046 16.0681 12.7582 16.2801 12.2973 16.2801C11.8305 16.2801 11.3645 16.0581 11.3597 16.0551L1.15647 11.6754ZM10.34 16.0618L9.61913 16.3331L9.0068 15.4788L10.34 16.0618ZM7.5482 17.8555L4.71423 13.6024L7.53097 14.8334L8.86307 16.6974C8.3259 16.9061 7.72567 17.3825 7.5482 17.8555ZM20.027 13.7941C20.0046 13.9315 19.994 14.0702 19.9954 14.2091L12.8583 17.2478L20.0204 14.5211C20.0273 14.5708 20.0336 14.6208 20.0424 14.6658L10.894 18.6308L20.1146 14.9618L20.1201 14.9811L9.91687 19.3601C9.9121 19.3631 9.4468 19.5851 8.9793 19.5851C8.51803 19.5851 8.23057 19.3728 8.09967 18.9358C7.76307 17.8135 9.67707 17.1771 9.70567 17.1675L11.3832 16.5168C11.5632 16.5864 12.8476 17.0448 13.4772 16.1451L13.8743 15.5498L20.2888 13.0598C20.2171 13.1804 20.1592 13.3074 20.1161 13.4388L13.398 16.2758L20.027 13.7941ZM20.0394 12.4071L14.6036 14.4551L16.1121 12.1914L18.5933 11.1071L20.0394 12.4071ZM20.9169 8.70473C20.8975 8.82379 20.8883 8.94404 20.8894 9.0644L14.7044 11.6977L20.9114 9.33473C20.9176 9.37773 20.9227 9.4214 20.9304 9.46006L13.0016 12.8961L20.9928 9.7164L20.9975 9.73307L12.1546 13.5288C12.1506 13.5311 11.7469 13.7238 11.3421 13.7238C10.9421 13.7238 10.6931 13.5394 10.5798 13.1608C10.2879 12.1881 11.9467 11.6367 11.9717 11.6284L21.1435 8.06839C21.0817 8.1731 21.0317 8.28322 20.9942 8.39706L15.1716 10.8557L20.9169 8.70473Z" fill="white"/>
</svg>
