<svg width="18" height="18" viewBox="0 0 18 18" fill="none" xmlns="http://www.w3.org/2000/svg">
<g clip-path="url(#clip0_2_6)">
<path d="M16.255 13.915C15.7728 13.4852 15.3507 12.9924 15 12.45C14.6167 11.7014 14.3872 10.8837 14.325 10.045V7.575C14.3283 6.25781 13.8505 4.98474 12.9814 3.99499C12.1122 3.00524 10.9116 2.36693 9.605 2.2V1.555C9.605 1.37797 9.53468 1.20819 9.40949 1.08301C9.28431 0.957826 9.11453 0.8875 8.9375 0.8875C8.76047 0.8875 8.59069 0.957826 8.46551 1.08301C8.34033 1.20819 8.27 1.37797 8.27 1.555V2.21C6.97513 2.38896 5.78899 3.03113 4.93127 4.01755C4.07354 5.00398 3.60237 6.26782 3.605 7.575V10.045C3.54278 10.8837 3.31327 11.7014 2.93 12.45C2.58544 12.9912 2.1701 13.4839 1.695 13.915C1.64167 13.9619 1.59892 14.0195 1.56961 14.0842C1.5403 14.1488 1.52509 14.219 1.525 14.29V14.97C1.525 15.1026 1.57768 15.2298 1.67145 15.3236C1.76522 15.4173 1.89239 15.47 2.025 15.47H15.925C16.0576 15.47 16.1848 15.4173 16.2786 15.3236C16.3723 15.2298 16.425 15.1026 16.425 14.97V14.29C16.4249 14.219 16.4097 14.1488 16.3804 14.0842C16.3511 14.0195 16.3083 13.9619 16.255 13.915ZM2.565 14.47C3.0301 14.0205 3.43968 13.5169 3.785 12.97C4.2679 12.066 4.54934 11.0681 4.61 10.045V7.575C4.59017 6.98902 4.68846 6.40504 4.89902 5.85783C5.10958 5.31063 5.42811 4.81139 5.83563 4.38985C6.24314 3.96831 6.73132 3.63308 7.27109 3.40414C7.81086 3.17519 8.39118 3.0572 8.9775 3.0572C9.56382 3.0572 10.1441 3.17519 10.6839 3.40414C11.2237 3.63308 11.7119 3.96831 12.1194 4.38985C12.5269 4.81139 12.8454 5.31063 13.056 5.85783C13.2665 6.40504 13.3648 6.98902 13.345 7.575V10.045C13.4057 11.0681 13.6871 12.066 14.17 12.97C14.5153 13.5169 14.9249 14.0205 15.39 14.47H2.565Z" fill="white"/>
<path d="M9 17.14C9.31497 17.1327 9.61723 17.0143 9.8533 16.8057C10.0894 16.5971 10.2441 16.3117 10.29 16H7.66C7.70724 16.3202 7.86917 16.6123 8.11565 16.822C8.36214 17.0317 8.67642 17.1447 9 17.14Z" fill="#FFFEFE"/>
</g>
<defs>
<clipPath id="clip0_2_6">
<rect width="18" height="18" fill="white"/>
</clipPath>
</defs>
</svg>
