<svg width="15" height="15" viewBox="0 0 20 20" fill="none" xmlns="http://www.w3.org/2000/svg">
<path d="M5.09 0.75C4.02913 0.75 3.01171 1.17143 2.26157 1.92157C1.51142 2.67172 1.09 3.68913 1.09 4.75V10.958C1.09 12.0189 1.51142 13.0363 2.26157 13.7864C3.01171 14.5366 4.02913 14.958 5.09 14.958H5.183V18.75C5.18291 18.8472 5.21115 18.9423 5.26429 19.0238C5.31742 19.1052 5.39313 19.1693 5.48216 19.2084C5.57118 19.2474 5.66966 19.2597 5.76554 19.2436C5.86142 19.2276 5.95054 19.1839 6.022 19.118L10.542 14.958H14.911C15.9719 14.958 16.9893 14.5366 17.7394 13.7864C18.4896 13.0363 18.911 12.0189 18.911 10.958V4.75C18.911 3.68913 18.4896 2.67172 17.7394 1.92157C16.9893 1.17143 15.9719 0.75 14.911 0.75H5.09Z" stroke="white" stroke-width="1.3" stroke-linecap="round" stroke-linejoin="round"/>
</svg>
