<svg width="10204" height="12022" viewBox="0 0 10204 12022" fill="none" xmlns="http://www.w3.org/2000/svg">
<rect x="5162.5" y="9321.5" width="912" height="599" stroke="#FFFAFA"/>
<path d="M5206.31 9426.91C5220.89 9580.13 5223.38 9669.94 5221.73 9834.34C5536.67 9813.76 5713.21 9809.64 6028.07 9815.87C6025 9626.12 6028.59 9517.35 6040.15 9321C5671.25 9344.04 5495.63 9357.82 5252.55 9384.36C5257.47 9590.78 5259.65 9708.2 5245.99 9921C5568.06 9876.98 5754.55 9862.92 6075 9857.92C6059.98 9679.2 6060.66 9563.65 6070.98 9376.5C5573.8 9399.45 5363.93 9418.17 5162 9466.22" stroke="white" stroke-width="20"/>
<rect x="8249.5" y="7221.5" width="853" height="600" stroke="#FFFAFA"/>
<path d="M8408.32 7260.96C8758.98 7150.08 9053.59 7288.68 9088.18 7448.06C9122.77 7607.45 8995.15 7758.02 8704.12 7790.15C8413.09 7822.28 8236.55 7689.35 8249.69 7524.29C8262.82 7359.23 8555.03 7224.61 8868.03 7358.34C9181.04 7492.07 9142.96 7747.67 8837.02 7807.52C8531.08 7867.37 8280.49 7735.61 8297.31 7524.29C8314.12 7312.98 8715.96 7146.03 9103 7358.34" stroke="white" stroke-width="20"/>
<rect x="7930.5" y="690.5" width="823" height="599" stroke="#FFFAFA"/>
<path d="M8548.09 826.935C8233.32 624.765 7944.65 802.366 7931.15 971.766C7892.52 1456.77 8839.32 1344.56 8747.76 923.037C8712.23 759.456 8409.58 617.212 8049.34 731.007" stroke="white" stroke-width="20"/>
<rect x="1344.5" y="675.5" width="537" height="614" stroke="#FFFAFA"/>
<path d="M1875.11 741.669C1885.88 853.283 1884.63 969.391 1867.05 1104.23C1789.19 1118.54 1657.74 1118.08 1585.2 1119.21L1423.24 1290C1446.47 1226.33 1462.79 1166.4 1462.79 1111.89C1423.12 1108.04 1383.62 1102.56 1344 1095.65C1364.02 932.44 1365.18 804.955 1356.51 685.726C1476.5 709.68 1646.24 709.553 1875.11 675" stroke="white" stroke-width="20"/>
<rect x="7529.5" y="5721.5" width="559" height="655" stroke="#FFFAFA"/>
<path d="M7529 5750.15C7555.32 5894.27 7561.74 6013.54 7536.36 6168.3C7639.34 6162.02 7719.41 6159.54 7795.48 6162.45L7939.98 6377C7921.44 6291.67 7923.09 6225.54 7939.98 6174.85C7976.81 6179.7 8015.39 6185.97 8057.67 6193.8C8080.1 6067.33 8094.52 5895.62 8086.98 5750.15C7966.25 5720.91 7782.34 5708.16 7600.31 5738.16" stroke="white" stroke-width="20"/>
<rect x="4652.5" y="3771.5" width="466" height="599" stroke="#FFFAFA"/>
<path d="M5119 4218.05C4963.34 4426.94 4658.34 4315.77 4655 4159.98C4651.66 4004.2 4911.29 4084.21 4892.33 4150.07C4873.37 4215.92 4609.35 4111.12 4657.96 3958.17C4702.83 3816.98 4955.97 3952.51 4926.06 4018.36C4896.16 4084.22 4681.04 3939.76 4757.98 3810.18C4809.28 3723.79 4940.86 3793.89 4977.55 3888.78M5119 4218.05L4989.98 4198.22M5119 4218.05L5106.57 4371" stroke="white" stroke-width="20"/>
<rect x="6428.5" y="9466.5" width="355" height="599" stroke="#FFFAFA"/>
<path d="M6588.72 9802L6471.39 9987L6428 9466L6784 9754.97L6588.72 9802ZM6588.72 9802L6736.45 10066" stroke="white" stroke-width="20"/>
<rect x="5269.5" y="9922.5" width="837" height="598" stroke="#FFFAFA"/>
<path d="M5269 10234.9L5770.72 10182.6M5329.35 10334L5838.5 10234.9L5817.61 10521L6107 10174.7L5799.04 9922L5828.44 10120.1C5675.49 10104.7 5367.58 10073.8 5359.53 10073.8" stroke="white" stroke-width="20"/>
<rect x="6249.5" y="2576.5" width="1363" height="600" stroke="#FFFAFA"/>
<path d="M6249 3177C6249 3177 6306.83 2515.28 6552.73 2580.53C6921.7 2678.44 7168.08 3733.04 7551.14 2587.05M7551.14 2587.05L7221.25 2681.93M7551.14 2587.05L7613 3011.79" stroke="white" stroke-width="20"/>
<rect x="3000.5" y="9549.5" width="637" height="599" stroke="#FFFAFA"/>
<path d="M3135.73 10147.9C2918.36 9894.42 2988.93 9549 3159.15 9549C3403.21 9549 3523.18 10122.1 3369.43 10147.9C3264.84 10165.5 3121.07 9960.55 3135.73 9805.78C3173.86 9609.61 3366.71 9854.66 3638 9839.02M3638 9839.02L3522.51 9714.54M3638 9839.02L3522.51 9963.5" stroke="white" stroke-width="20"/>
<rect x="6685.5" y="9466.5" width="651" height="599" stroke="#FFFAFA"/>
<path d="M6685 9809.09C6731.49 9694.72 6881.73 9466 7110.76 9466M6982.2 10066C6941.64 9859.13 7044.54 9584.56 7226.07 9499.25M7337 9552.71C7291.02 9577.98 7208.86 9675.32 7248.01 9862.54M7226.07 9592.54C7168.31 9650.83 7071.77 9811.92 7147.71 9989.93M6992.88 9592.54C6914.57 9643.01 6817.29 9803.96 6810.17 9967.18" stroke="white" stroke-width="20"/>
<rect x="1351.5" y="9321.5" width="472" height="600" stroke="#FFFAFA"/>
<path d="M1559.06 9435.94C1590 9489.28 1603.59 9567.32 1607.08 9634.6M1648.82 9813.82C1620.04 9771 1613.05 9705.71 1607.08 9634.6M1607.08 9634.6C1684.92 9662.61 1728.83 9677.18 1823.94 9634.6M1607.08 9634.6C1633.83 9490.89 1696.39 9459.23 1738.07 9321M1607.08 9634.6C1545.69 9592.41 1441.05 9610.23 1350.94 9560.35M1607.08 9634.6C1559.06 9641.03 1492.11 9674.09 1454.27 9698.37M1607.08 9634.6C1584.45 9768.06 1563.18 9834.7 1492.11 9922M1607.08 9634.6C1664.9 9667.37 1700.58 9703.24 1738.07 9761.98M1607.08 9634.6C1633.47 9672.52 1649.28 9692.68 1666.75 9740.3M1607.08 9634.6C1677.29 9572.84 1710.94 9534.91 1757.09 9459.23M1607.08 9634.6C1605.6 9638.31 1553.7 9761.98 1424.78 9822.84M1607.08 9634.6C1649.56 9626.4 1695.62 9614.9 1738.07 9594.73M1607.08 9634.6C1599.99 9618.04 1577.38 9588.54 1563.09 9570.42M1818.42 9538.86C1804.64 9552.89 1789.46 9564.89 1773.36 9575.22M1519.91 9499.05C1525.13 9514.73 1533.47 9529.57 1543.06 9543.73" stroke="white" stroke-width="20"/>
<rect x="902.5" y="4220.5" width="898" height="600" stroke="#FFFAFA"/>
<path d="M1216.65 4220L1333.91 4295.13L1138.48 4335.04L1480.49 4398.42L1083.75 4426.59L1431.63 4447.72L991.9 4515.8L1801 4558.06L902 4647.27L1535.21 4682.49L1169.75 4722.4L1353.45 4821" stroke="white" stroke-width="20"/>
<rect x="6393.5" y="2721.5" width="546" height="599" stroke="#FFFAFA"/>
<path d="M6459.06 3234.84C6393.71 3180.35 6546.8 3034.59 6641.93 3096.83C6714.18 3144.09 6723.6 3321 6668.46 3321C6610.55 3321 6620.39 3152.69 6695.68 3084.7C6787.9 3001.43 6945.63 3038.25 6939.37 3122.25C6930.82 3237.08 6721.86 3170.02 6701.61 2995.62C6681.37 2821.21 6881.78 2730.85 6910.58 2802.75C6940.33 2877 6781.19 2985.8 6679.63 2944.59C6589.46 2908.01 6539.05 2752.9 6594.12 2725.02C6668.46 2687.38 6684.16 2924.52 6616.11 2995.62C6542.77 3072.23 6363.08 2983.07 6397.28 2913.64C6426.84 2853.64 6549.47 2944.51 6567.25 3048.31C6584.79 3150.72 6502.68 3271.23 6459.06 3234.84Z" stroke="white" stroke-width="20"/>
<rect x="6743.5" y="4376.5" width="841" height="600" stroke="#FFFAFA"/>
<path d="M6743 4809.73L7494.92 4712.22M6896.14 4712.22L7541.1 4570.92M7494.92 4830.81C7469.73 4830.81 7119 4857.88 6946.79 4871.42M7054.84 4952.64L7585 4977M7054.84 4595.28L7585 4376" stroke="white" stroke-width="20"/>
<rect x="4199.5" y="9622.5" width="542" height="599" stroke="#FFFAFA"/>
<path d="M4479.28 9762.25C4458.48 9684.74 4419.18 9627.32 4359.92 9622.35C4159.03 9605.5 4138.74 10204.6 4342.01 10221.7C4400.71 10226.6 4443.66 10173.5 4469.29 10097.2M4479.28 9762.25C4487.85 9694.95 4539.13 9617.24 4600.07 9622.35C4800.65 9622.35 4781.62 10238 4587.19 10221.7C4527.76 10216.7 4493.12 10154.5 4469.29 10097.2M4479.28 9762.25C4506.51 9863.68 4502.07 9999.5 4469.29 10097.2M4635.78 9940.73C4634 10000.8 4601.42 10048.1 4563 10046.4C4524.59 10044.8 4494.89 9994.79 4496.67 9934.75C4498.45 9874.71 4531.03 9827.38 4569.44 9829.03C4596.83 9830.21 4635.78 9860.49 4635.78 9940.73ZM4344.46 9941.09C4342.55 10003.2 4308.46 10052.1 4268.32 10050.4C4228.18 10048.6 4197.18 9996.86 4199.08 9934.75C4200.99 9872.64 4235.08 9823.72 4275.22 9825.47C4302.62 9826.66 4347.18 9852.42 4344.46 9941.09Z" stroke="white" stroke-width="20"/>
<rect x="4845.5" y="74.5" width="595" height="600" stroke="#FFFAFA"/>
<path d="M5136.34 675C4844.45 675 4766.36 208.705 4927.15 169.304C5077.96 132.35 5158.68 406.592 5055.26 406.592C4974.53 406.592 4987.15 74 5136.34 74C5339.04 74 5355.33 527.843 5204.79 472.722C5093.25 431.877 5226.65 148.123 5347.15 169.304C5535.26 202.369 5428.23 675 5136.34 675Z" stroke="white" stroke-width="20"/>
<rect x="111.5" y="9321.5" width="395" height="600" stroke="#FFFAFA"/>
<path d="M125.061 9657.58C79.2896 9593.62 149.161 9509.47 278.126 9440.44M338.465 9406.25C423.639 9358.27 507 9321 507 9321M195.984 9447.21C212.23 9413.4 249.524 9377.45 284.099 9391.17C385.839 9431.55 275.657 9627.86 190.377 9669.22M149.161 9922C149.161 9922 144.743 9740.2 167.864 9579.43" stroke="white" stroke-width="20"/>
<rect x="141.5" y="1820.5" width="423" height="599" stroke="#FFFAFA"/>
<path d="M346.635 1820C346.635 1961.01 152.001 2003.01 141.989 2183.03C129.633 2316.33 235.781 2417.46 309.373 2420L315.767 2404.25C206.895 2248.25 382.091 2205.5 382.091 2123.75C495.969 2248.25 471.954 2333.46 414.767 2416.55L416.034 2419C600.734 2365.08 651.533 2068.23 346.635 1820Z" stroke="white" stroke-width="20"/>
<rect x="1018.5" y="9676.5" width="391" height="598" stroke="#FFFAFA"/>
<path d="M1278.77 9935.59C1256.93 9937.23 1236.13 9942.97 1224.19 9950.1C1214.4 9955.94 1206.97 9963.74 1201.84 9972.47M1278.77 9935.59C1304.51 9935.59 1334.87 9939.48 1359.55 9950.1M1278.77 9935.59C1278.77 9914.95 1278.72 9902.45 1277.72 9889.54M1194.88 9896.47L1201.84 9972.47M1194.88 9896.47C1189.67 9816.94 1272.06 9816.66 1277.72 9889.54M1194.88 9896.47C1183.3 9851.45 1137.94 9843.83 1119.7 9878.07M1344.69 10056.5H1300.36M1243.91 10151.7C1245.87 10111.2 1264.5 10056.5 1300.36 10056.5M1300.36 10056.5C1267.91 10056.5 1209.85 10067.1 1195.73 10021.2M1201.84 9972.47C1192.91 9987.67 1190.95 10005.7 1195.73 10021.2M1195.73 10021.2C1178.11 10047.9 1139.16 10037 1128.55 10008.3C1117.94 9979.64 1114.93 9942.63 1112.53 9919.86C1110.78 9903.21 1113.84 9889.07 1119.7 9878.07M1359.55 9950.1C1395.8 9965.7 1415.01 9994.18 1408.87 10056.5C1395.38 10193.3 1335.83 10275 1219.88 10275C1025.32 10275 1022.81 9942.36 1018 9781.77C1018 9712.95 1091.78 9707.45 1103.94 9759.07C1109.29 9780.41 1117.18 9842.28 1119.7 9878.07M1359.55 9950.1C1375.9 9863.08 1384.41 9785.8 1386.63 9728.39C1388.85 9670.98 1320.82 9649.86 1303.99 9721.55C1293.25 9767.34 1283.42 9841.75 1277.72 9889.54" stroke="white" stroke-width="20"/>
<rect x="7628.5" y="6921.5" width="371" height="599" stroke="#FFFAFA"/>
<path d="M7937.61 6921L7628 7198.57L7937.61 7521M8000 7066.79L7882.37 7198.57L8000 7320.53" stroke="white" stroke-width="20"/>
<rect x="3793.5" y="8421.5" width="372" height="599" stroke="#FFFAFA"/>
<path d="M3867.14 8421L4166 8659.32L3867.14 9021M3793 8580.81L3919.26 8690.16L3793 8834.55" stroke="white" stroke-width="20"/>
<rect x="7282.5" y="1220.5" width="576" height="599" stroke="#FFFAFA"/>
<path d="M7857.88 1640.68C7848.13 1560.46 7803.64 1514.83 7738.36 1515.88C7714.73 1480.91 7684.07 1398.23 7750.52 1240.88C7622.07 1350.15 7496.79 1818.53 7750.52 1799.43C7812.29 1794.78 7867.63 1720.89 7857.88 1640.68Z" stroke="white" stroke-width="20"/>
<path d="M7532.86 1681.72C7533.1 1600.65 7494.73 1547.59 7430.05 1536.97C7410.99 1498.16 7396.04 1363.74 7481.15 1220C7340.65 1305.12 7153.86 1793.14 7407.13 1819.55C7468.79 1825.98 7532.62 1762.8 7532.86 1681.72Z" stroke="white" stroke-width="20"/>
<rect x="7757.5" y="4821.5" width="600" height="599" stroke="#FFFAFA"/>
<path d="M7758.16 4986.15C7768.29 5069.26 7814.46 5116.53 7882.21 5115.45C7906.74 5151.68 7951.18 5242.13 7882.21 5405.14C8015.53 5291.94 8132.93 4801.89 7869.59 4821.68C7805.48 4826.5 7748.04 4903.04 7758.16 4986.15Z" stroke="white" stroke-width="20"/>
<path d="M8097.04 4964.26C8096.79 5048.26 8136.62 5103.23 8203.75 5114.24C8223.54 5154.44 8241.03 5272.08 8152.7 5421C8298.52 5332.81 8490.42 4848.83 8227.54 4821.47C8163.55 4814.81 8097.29 4880.27 8097.04 4964.26Z" stroke="white" stroke-width="20"/>
<rect x="7529.5" y="9177.5" width="736" height="600" stroke="#FFFAFA"/>
<path d="M7897.5 9177C7651.03 9177 7529 9285 7529 9418.22C7529 9500.72 7578.21 9573.54 7672.72 9617.04L7622.32 9778L7783.07 9650.18C7817.81 9656.21 7855.99 9659.44 7897.5 9659.44C8137.68 9659.44 8266 9551.44 8266 9418.22C8266 9290.16 8137.38 9145.45 7844.2 9262.64" stroke="white" stroke-width="20"/>
<rect x="1994.5" y="20.5" width="493" height="599" stroke="#FFFAFA"/>
<path d="M2283.96 620C2104.75 620 2015.23 530.593 1995.32 377.529C1987.86 300.221 2012.62 228.467 2054.82 174.249L2023.36 20L2163.58 90.4555C2182.58 82.7953 2202.31 77.7896 2222.29 75.8315C2263.53 71.7889 2304.8 78.1066 2342.1 94.2586L2468.7 20L2439.91 174.249C2465.61 211.004 2482.78 257.591 2487.1 313.436C2498.66 463.126 2394.65 577.21 2222.29 552.5" stroke="white" stroke-width="20"/>
<rect x="4812.5" y="9172.5" width="914" height="598" stroke="#FFFAFA"/>
<path d="M5269.88 9172C4963.88 9172 4812.38 9306.09 4812.38 9471.5C4812.38 9636.91 4971.7 9771 5269.88 9771C5568.07 9771 5727.38 9636.91 5727.38 9471.5C5727.38 9312.5 5564.04 9137.56 5195.73 9269.34" stroke="white" stroke-width="20"/>
<rect x="6711.5" y="5864.5" width="689" height="600" stroke="#FFFAFA"/>
<path d="M6752.19 6286.67C6810.77 6369.3 6927.6 6408.42 7089.92 6367.9C7306.12 6313.94 7445.45 6121.66 7388.03 5963.69C7343.72 5841.79 7172.06 5845.33 7020.98 5901.68M6752.19 6286.67C6732.75 6259.24 6719.73 6227.02 6713.59 6191.33C6693.2 6072.81 6792.95 5909.92 7020.98 5901.68M6752.19 6286.67C6723.31 6174.56 6773.76 6042.6 6896.11 5963.69C6933.38 5939.65 6976.28 5918.36 7020.98 5901.68M6752.19 6286.67C6761.84 6324.12 6780.34 6359.35 6807.97 6389.66C6889.89 6479.53 7083.65 6498.33 7254.92 6394.58M7020.98 5901.68C7068.55 5899.96 7121.71 5904.98 7180.52 5918.53" stroke="white" stroke-width="20"/>
<rect x="2700.5" y="320.5" width="1564" height="600" stroke="#FFFAFA"/>
<path d="M2700 490.785C2700 490.785 2730.2 829.889 2864.87 873.471C3040.28 930.234 3105.64 392.742 3105.64 392.742C3105.64 392.742 3191.64 876.232 3380.43 873.471C3581.54 870.53 3615.97 320 3615.97 320C3615.97 320 3712.82 929.418 3945.72 920.912C4167.86 912.798 4265 351.627 4265 351.627" stroke="white" stroke-width="20"/>
<rect x="2611.5" y="9622.5" width="258" height="599" stroke="#FFFAFA"/>
<path d="M2611 10017.1C2669.06 9972.72 2662.64 9870.46 2617.14 9821.68M2660.07 10105.6C2753.48 10050.5 2790.34 9850.92 2687.95 9741.17M2686.75 10222C2874.04 10139.7 2945 9810.77 2768.89 9622" stroke="white" stroke-width="20"/>
<rect x="1791.5" y="9622.5" width="568" height="599" stroke="#FFFAFA"/>
<path d="M1871.48 10222C1871.48 10222 1732.24 9978.89 1820.06 9920.07C1907.89 9861.25 1906.84 10207.7 1997.35 10155C2112.51 10088.1 1878.88 9866.35 1980.75 9805.48C2075.55 9748.82 2064.4 10109.1 2162.32 10055.9C2290.33 9986.38 2032.17 9753.33 2150 9691.53C2220.02 9654.81 2237.07 10008.1 2329.43 9952.26C2428.52 9892.39 2254.98 9622 2254.98 9622" stroke="white" stroke-width="20"/>
<rect x="1274.5" y="20.5" width="473" height="599" stroke="#FFFAFA"/>
<path d="M1501.69 312.154C1512.18 354.521 1552.59 366.822 1595.07 346.377C1637.56 325.932 1673.17 238.684 1603.73 171.775C1534.29 104.867 1372.12 170.802 1388.43 326.98C1404.74 483.159 1536.56 516.283 1641.25 465.901C1745.94 415.519 1765.39 261.344 1734.92 169.487C1646.86 -95.9646 1326.97 31.1439 1282.97 248.096C1238.97 465.048 1365.91 601.057 1464.99 620" stroke="white" stroke-width="20"/>
<rect x="481.5" y="9622.5" width="333" height="599" stroke="#FFFAFA"/>
<path d="M566.234 9649.8C579.493 9631.22 623.08 9609.04 638.355 9631.4C664.581 9669.79 574.102 9821.78 540.882 9779.71C502.365 9730.92 679.005 9654.54 724.464 9719.23C775.096 9791.28 598.142 10019.5 540.882 9945.37C474.688 9859.64 745.007 9747.1 804.453 9873.32C865.384 10002.7 649.72 10168.4 481 10222" stroke="white" stroke-width="20"/>
<rect x="159.5" y="2721.5" width="217" height="599" stroke="#FFFAFA"/>
<path d="M350.042 2721.61C350.042 2721.61 181.043 2704.31 160.341 2853.6C155.117 2891.27 165.58 2922.96 184.327 2947.6M184.327 2947.6C239.867 3020.6 368.117 3031.67 376.545 2952.87C386.238 2862.25 238.38 2843.6 184.327 2947.6ZM184.327 2947.6C175.518 2964.55 169.2 2984.76 166.462 3008.44C159.116 3071.98 181.956 3120.05 213.905 3150.97M213.905 3150.97C266.943 3202.31 345.085 3206.4 351.898 3155.56C361.545 3083.58 249.414 3075.49 213.905 3150.97ZM213.905 3150.97C209.23 3160.91 205.883 3172.29 204.317 3185.17C190.856 3295.87 309.863 3321 309.863 3321" stroke="white" stroke-width="20"/>
<rect x="7795.5" y="8421.5" width="2195" height="599" stroke="#FFFAFA"/>
<path d="M7795 8683.25L9991 8421M7795 9021H9419.84" stroke="white" stroke-width="20"/>
<rect x="7011.5" y="8421.5" width="533" height="599" stroke="#FFFAFA"/>
<path d="M7253.99 8434.03V8531.72M7308.29 8540.67L7349.69 8421M7382.27 8593.59L7545.17 8443.8M7414.17 8675.82H7545.17M7414.17 8748.27L7487.48 8781.65M7382.27 8823.99L7520.74 8951.8M7152.18 8578.12L7043.58 8434.03M7116.88 8619.64L7034.76 8578.12M7103.31 8734.43H7034.76M7116.88 8797.93L7011 8847.59M7175.26 8866.32L7116.88 9021M7226.84 8883.42L7213.94 8976.22M7308.29 8866.32L7349.69 9021" stroke="white" stroke-width="20"/>
<rect x="6292.5" y="8421.5" width="467" height="599" stroke="#FFFAFA"/>
<path d="M6292 8900.07L6329.85 8570.87L6375.02 9021V8421L6447.71 8929.53L6465.35 8616.87L6520.84 8837.54L6551.81 8666.48L6628.37 8783.27L6683.86 8666.48L6760 8729.01" stroke="white" stroke-width="20"/>
<rect x="5581.5" y="8421.5" width="459" height="599" stroke="#FFFAFA"/>
<path d="M5852.15 8421L5688.03 8602.71L5852.15 8499.29L5694.69 8673.57L5954.42 8485.57L5581 8857.57L6041 8514.71L5688.03 8847.29L5954.42 8687.29L5737.98 8909.57L5938.72 8771.86L5809.34 9021" stroke="white" stroke-width="20"/>
<rect x="5040.5" y="8421.5" width="290" height="599" stroke="#FFFAFA"/>
<path d="M5177.66 9021L5065.27 8510.16M5177.66 9021L5331 8628.69M5177.66 9021L5202.05 8421M5177.66 9021L5040 8845.83M5177.66 9021L5331 8914.01" stroke="white" stroke-width="20"/>
<rect x="4377.5" y="8421.5" width="410" height="599" stroke="#FFFAFA"/>
<path d="M4545.65 8421L4584.37 8717.24M4584.37 8717.24L4788 8580.4M4584.37 8717.24L4788 8902.2M4584.37 8717.24L4481.94 9021M4584.37 8717.24H4377" stroke="white" stroke-width="20"/>
<rect x="3259.5" y="7221.5" width="445" height="600" stroke="#FFFAFA"/>
<path d="M3444.54 7307.45L3479.39 7518.9M3479.39 7518.9L3495.94 7730.34M3479.39 7518.9L3259 7551.19M3479.39 7518.9L3705 7533.48M3479.39 7518.9L3685.84 7221M3479.39 7518.9L3691.06 7822M3479.39 7518.9L3356.56 7742.84M3479.39 7518.9L3259 7319.95" stroke="white" stroke-width="20"/>
<rect x="2950.5" y="8421.5" width="479" height="599" stroke="#FFFAFA"/>
<path d="M3091.22 8540.13L3155.27 8762.16M3155.27 8762.16L3150.64 8979.84M3155.27 8762.16L2950 8930.03M3155.27 8762.16L3355.14 8777.32M3155.27 8762.16L3266.4 8421M3155.27 8762.16L3430 8939.77M3155.27 8762.16L3046.46 8995.01M3155.27 8762.16L2960.03 8555.3M3155.27 8762.16L3342.8 8601.87M3155.27 8762.16L2986.27 8743.74M3155.27 8762.16L3266.4 9021" stroke="white" stroke-width="20"/>
<rect x="2344.5" y="8421.5" width="355" height="599" stroke="#FFFAFA"/>
<path d="M2367.14 8602.97L2540.72 8540.67M2387.56 8727.56L2700 8694.77M2387.56 8844.77L2567.27 8898.87M2344 8966.08L2457.67 9021M2344 8478.38L2439.3 8421" stroke="white" stroke-width="20"/>
<rect x="1173.5" y="8421.5" width="919" height="599" stroke="#FFFAFA"/>
<path d="M1173 8962.5L1539.11 9021M1205.11 8750.25L2093 8666.53M1173 8591.73L1783.63 8421" stroke="white" stroke-width="20"/>
<rect x="12.5" y="8421.5" width="910" height="599" stroke="#FFFAFA"/>
<path d="M923 8509.18L593.031 8421M877.091 8690.74C747.399 8690.74 261.628 8690.74 12 8690.74M923 8872.3L442.394 9021" stroke="white" stroke-width="20"/>
<rect x="6771.5" y="7221.5" width="521" height="600" stroke="#FFFAFA"/>
<path d="M7293 7221L6901.5 7321.58L7001.41 7409.89L6771 7630.66C6771 7630.66 6830.81 7652.14 6881.11 7699.35C6931.41 7746.56 6965.39 7822 6965.39 7822L7142.11 7539.9L7221.63 7667.46L7293 7221Z" stroke="white" stroke-width="20"/>
<rect x="5474.5" y="3920.5" width="504" height="600" stroke="#FFFAFA"/>
<path d="M5474 4315.42L5568.34 3922.49L5620.37 4098.23L5854.14 3920C5854.14 3920 5858.54 4010.36 5891.6 4107.35C5924.65 4204.34 5979 4286.4 5979 4286.4L5685.57 4356.86L5742.45 4521L5474 4315.42Z" stroke="white" stroke-width="20"/>
<rect x="5324.5" y="7221.5" width="442" height="600" stroke="#FFFAFA"/>
<path d="M5324 7586.66L5454.22 7221C5454.22 7221 5378.26 7822 5560.18 7822C5661.87 7822 5668.05 7528.4 5668.05 7528.4M5668.05 7528.4L5556.72 7647.23M5668.05 7528.4L5767 7662.1" stroke="white" stroke-width="20"/>
<rect x="4224.5" y="5121.5" width="517" height="599" stroke="#FFFAFA"/>
<path d="M4366.05 5675.11L4224 5589.24M4224 5589.24L4295.51 5418.66M4224 5589.24C4412 5521.14 4536.55 5450.59 4616.28 5385.55M4616.28 5385.55C4773.08 5257.65 4756.61 5151.06 4708.59 5126.38C4658.49 5100.64 4574.05 5164.08 4616.28 5385.55ZM4616.28 5385.55C4632.76 5471.95 4668.52 5582.4 4733.13 5721" stroke="white" stroke-width="20"/>
<rect x="4551.5" y="6465.5" width="340" height="599" stroke="#FFFAFA"/>
<path d="M4866.57 6501.69C4866.57 6501.69 4615.68 6694.33 4700.02 6783.25C4756.44 6842.73 4892 6781.14 4892 6781.14L4551 7065M4866.57 6501.69L4725.35 6465M4866.57 6501.69L4836.1 6671.78" stroke="white" stroke-width="20"/>
<rect x="6822.5" y="1220.5" width="479" height="599" stroke="#FFFAFA"/>
<path d="M7282.69 1355.26C7282.69 1355.26 7230.1 1251.69 7174.07 1235.11C7060.83 1201.59 7039.23 1554.65 7039.23 1554.65C7039.23 1554.65 6980.75 1434.82 6919.66 1433.7C6811.28 1431.71 6822.32 1820 6822.32 1820M7282.69 1355.26L7302 1220M7282.69 1355.26L7169.89 1332.11" stroke="white" stroke-width="20"/>
<rect x="2273.5" y="7221.5" width="712" height="600" stroke="#FFFAFA"/>
<path d="M2932.33 7451.24C2703.84 7989.96 2305.76 7849.96 2275.66 7604.85C2247.43 7375.09 2450.65 7251.83 2574.74 7267.25C2692.8 7281.92 2697.44 7429.11 2590.08 7429.11C2459.42 7429.11 2386.55 7312.95 2373.38 7221M2932.33 7451.24L2766.56 7515.89M2932.33 7451.24L2986 7650.89" stroke="white" stroke-width="20"/>
<rect x="1612.5" y="7221.5" width="410" height="600" stroke="#FFFAFA"/>
<path d="M1612 7285.97C1612 7285.97 1888.34 7147.71 1993.51 7274.57C2134.5 7444.61 1724.14 7797.03 1724.14 7797.03M1724.14 7797.03L1861.02 7822M1724.14 7797.03L1744.92 7632.6" stroke="white" stroke-width="20"/>
<rect x="1023.5" y="7221.5" width="339" height="600" stroke="#FFFAFA"/>
<path d="M1336.08 7797.7C1336.08 7797.7 1023 7904.41 1023 7670.61C1023 7436.81 1363 7275.75 1363 7275.75M1363 7275.75L1208.53 7221M1363 7275.75L1317.31 7460.84" stroke="white" stroke-width="20"/>
<rect x="566.5" y="7221.5" width="206" height="600" stroke="#FFFAFA"/>
<path d="M743.938 7221L703.571 7426.95C604.941 7347.19 650.384 7602.96 661.902 7658.27C533.193 7525.39 552.827 7718.19 611.806 7822M743.938 7221L697.857 7256.21M743.938 7221L773 7276.84" stroke="white" stroke-width="20"/>
<rect x="12.5" y="7221.5" width="302" height="600" stroke="#FFFAFA"/>
<path d="M118.28 7221L12 7223.5M12 7223.5L14.0796 7351.04M12 7223.5L275.408 7511.14L156.791 7522.42L315 7822" stroke="white" stroke-width="20"/>
<rect x="6081.5" y="6020.5" width="355" height="600" stroke="#FFFAFA"/>
<path d="M6113.12 6620.1C6017.19 6452.04 6139.35 6095.42 6436.63 6020C6439.06 6512.33 6323.53 6632.95 6113.12 6620.1ZM6113.12 6620.1C6119.73 6554.17 6161.19 6384.32 6274.17 6232.32" stroke="white" stroke-width="20"/>
<rect x="5310.5" y="6020.5" width="519" height="600" stroke="#FFFAFA"/>
<path d="M5390.11 6506.65C5472.09 6753.46 5569.04 6418.45 5569.04 6418.45C5569.04 6418.45 5665.26 6790.29 5752.14 6526.35C5968.36 6421.32 5665.64 6305.35 5665.64 6305.35C5665.64 6305.35 5929.47 6195.2 5722.83 6107.4C5637.54 5894.9 5550.84 6199.17 5550.84 6199.17C5550.84 6199.17 5462.78 5870.54 5376.78 6103.43C5180.81 6200.42 5478.54 6305.95 5478.54 6305.95C5478.54 6305.95 5205.41 6423.46 5390.11 6506.65Z" stroke="white" stroke-width="20"/>
<rect x="4325.5" y="2870.5" width="508" height="600" stroke="#FFFAFA"/>
<path d="M4527.93 2874.77C4400.51 2917.92 4521.85 3126.33 4521.85 3126.33C4521.85 3126.33 4297 3084.44 4327.92 3246.72C4358.85 3409 4548.24 3264.82 4548.24 3264.82C4548.24 3264.82 4509.29 3505.28 4648.25 3466.84C4787.21 3428.4 4666.21 3209.36 4666.21 3209.36C4666.21 3209.36 4858.23 3236.17 4831.44 3095.58C4804.65 2955 4632.72 3095.66 4632.72 3095.66C4632.72 3095.66 4655.35 2831.62 4527.93 2874.77Z" stroke="white" stroke-width="20"/>
<rect x="3793.5" y="6020.5" width="505" height="600" stroke="#FFFAFA"/>
<path d="M4138.36 6161.1C4220.16 6150.87 4287.81 6203.24 4297.38 6262.87C4307.26 6324.42 4272.26 6398.64 4181.63 6433.74C4180.23 6532.87 4150.11 6606.69 4097.15 6618.99C4044.19 6631.29 3992.2 6587.27 3955.87 6485.65C3867.61 6496.32 3800.19 6437.73 3793.7 6366.47C3787.2 6295.22 3826.13 6241.63 3911.89 6214.26C3905.08 6106.72 3937.09 6036.92 4001.35 6022C4065.62 6007.07 4124.55 6078.03 4138.36 6161.1Z" stroke="white" stroke-width="20"/>
<path d="M4136.95 6301.61C4146.47 6360.91 4121 6418.17 4071.7 6429.62C4022.41 6441.07 3970.16 6416.08 3958.44 6343.06C3948.92 6283.76 3973.43 6234.87 4030.47 6214.97C4081.32 6197.22 4126.16 6234.32 4136.95 6301.61Z" stroke="white" stroke-width="20"/>
<rect x="3185.5" y="6020.5" width="357" height="600" stroke="#FFFAFA"/>
<path d="M3276.82 6621C3276.82 6621 3115.93 6376.28 3220.1 6336.29C3251.67 6324.18 3285.05 6372.6 3285.05 6372.6C3285.05 6372.6 3226.93 6123.44 3303.18 6123.44C3341.61 6123.44 3356.17 6202.53 3356.17 6202.53C3356.17 6202.53 3429.65 5973.78 3502.48 6028.44C3566.73 6076.66 3470.35 6249.71 3470.35 6249.71C3470.35 6249.71 3510.83 6234.7 3530.84 6249.71C3590.25 6294.26 3412.62 6419.57 3412.62 6419.57C3412.62 6419.57 3484.37 6416.25 3502.48 6454.75C3553.29 6562.75 3276.82 6621 3276.82 6621ZM3276.82 6621C3294.81 6538.22 3353.23 6326.31 3442.99 6140.88" stroke="white" stroke-width="20"/>
<rect x="2452.5" y="6020.5" width="483" height="600" stroke="#FFFAFA"/>
<path d="M2828.16 6620.89C2828.16 6620.89 3033.73 6189.78 2877.22 6149.05C2804.75 6130.19 2798.27 6237.3 2798.27 6237.3C2798.27 6237.3 2702.39 5941.64 2551.17 6040.07C2434.9 6115.75 2590.24 6313 2590.24 6313C2450.25 6298.08 2415.56 6465.2 2490.84 6542.95C2563.59 6618.09 2736.39 6621.86 2828.16 6620.89ZM2828.16 6620.89C2806.66 6511.08 2753.15 6299.96 2657.28 6189.78" stroke="white" stroke-width="20"/>
<rect x="1690.5" y="6020.5" width="512" height="600" stroke="#FFFAFA"/>
<path d="M1994.24 6208.98C1994.24 6208.98 2036.92 6048.54 1979.9 6022.53C1916.58 5993.64 1930.59 6221.87 1930.59 6221.87C1930.59 6221.87 1792.66 6041.26 1762.92 6124.62C1735.47 6201.57 1872.31 6298.17 1872.31 6298.17C1872.31 6298.17 1672.84 6320.22 1691.19 6413.69C1710.05 6509.69 1900.55 6385.21 1900.55 6385.21C1900.55 6385.21 1832.84 6576.82 1900.55 6616.26C1975.83 6660.12 1994.24 6385.21 1994.24 6385.21C1994.24 6385.21 2153.52 6566.05 2196.88 6478.71C2239.54 6392.76 2045.35 6298.17 2045.35 6298.17C2045.35 6298.17 2193.22 6243.41 2174.46 6167.6C2154.08 6085.26 1994.24 6208.98 1994.24 6208.98Z" stroke="white" stroke-width="20"/>
<rect x="902.5" y="6020.5" width="536" height="600" stroke="#FFFAFA"/>
<path d="M1129.85 6020.63C1018.05 6033.51 1118.44 6234.63 1118.44 6234.63C1118.44 6234.63 895.31 6042.69 902.154 6316.81C908.999 6590.93 1112.05 6379.14 1112.05 6379.14C1112.05 6379.14 937.289 6572.18 1112.05 6616.3C1286.81 6660.43 1207.42 6379.14 1207.42 6379.14C1207.42 6379.14 1312.82 6616.3 1415.03 6450.84C1517.25 6285.37 1259.44 6289.78 1259.44 6289.78C1259.44 6289.78 1513.16 6280.96 1401.8 6101.15C1290.44 5921.35 1207.42 6198.23 1207.42 6198.23C1207.42 6198.23 1241.64 6007.74 1129.85 6020.63Z" stroke="white" stroke-width="20"/>
<rect x="267.5" y="6465.5" width="640" height="599" stroke="#FFFAFA"/>
<path d="M694.055 7063.87C642.422 7077.69 589.779 6960.22 589.779 6960.22C589.779 6960.22 560.055 7029.32 527.689 7026.43C496.816 7023.68 474.137 6956.37 474.137 6956.37C474.137 6956.37 332.221 7075.98 282.79 6999.42C212.819 6891.03 398.064 6781.74 398.064 6781.74C398.064 6781.74 276.585 6731.54 282.791 6667.44C292.583 6566.28 474.292 6646.49 474.292 6646.49C474.292 6646.49 452.344 6516.56 499.163 6487.75C553.701 6454.19 619.792 6608.15 619.792 6608.15C619.792 6608.15 809.795 6396.75 888.454 6487.75C964.547 6575.78 793.921 6774.72 793.921 6774.72C793.921 6774.72 904.524 6831.37 888.454 6892.1C871.417 6956.49 744.421 6902.9 744.421 6902.9C744.421 6902.9 748.725 7049.24 694.055 7063.87Z" stroke="white" stroke-width="20"/>
<rect x="1749.5" y="5421.5" width="640" height="598" stroke="#FFFAFA"/>
<path d="M2186.8 5421.46C2136.34 5412.32 2127.51 5543.48 2077.06 5534.31C2046.11 5528.68 2044.59 5470.24 2013.61 5475.62C1984.06 5480.76 1990.39 5526.67 1966.01 5547.32C1899 5604.06 1815.52 5392.24 1763.08 5482.13C1686.91 5612.68 1946.75 5620.44 1902.6 5721.43C1878.51 5776.55 1782.83 5747.73 1791.54 5809.07C1804.65 5901.33 1934.31 5776.15 1983.53 5845.38C2016.45 5891.68 1969.7 5972.13 2016.36 5996.07C2070.72 6023.96 2070.31 5895.41 2125.68 5870.54C2224.42 5826.19 2294.04 6087.89 2372.07 6002.9C2450.28 5917.71 2244.99 5814.06 2283.89 5696.3C2302.75 5639.18 2395.96 5639.4 2377.1 5582.28C2357.09 5521.72 2274.85 5612.11 2229.07 5576.99C2183.57 5542.09 2240.22 5431.13 2186.8 5421.46Z" stroke="white" stroke-width="20"/>
<rect x="6262.5" y="4821.5" width="449" height="599" stroke="#FFFAFA"/>
<path d="M6425.51 5232.38C6369.21 5204.61 6305.89 5347.42 6274.48 5292.22C6236.55 5225.57 6398.78 5232 6400.91 5151.35C6403.18 5064.98 6231.38 5075.7 6264.06 5002.8C6296.27 4930.95 6374.42 5100.82 6432.22 5057.66C6497.51 5008.9 6363.97 4840.34 6439.38 4822.07C6515.95 4803.52 6435.6 5014.53 6509 5046.38C6579.67 5077.06 6632.83 4871.06 6680.3 4940.8C6722.27 5002.43 6540.63 5042.41 6549.6 5140.95C6558.38 5237.32 6745 5217.22 6706.75 5302.74C6668.36 5388.54 6572.49 5174.26 6507.22 5232.31C6455.82 5278.01 6539.85 5410.52 6476.37 5420.31C6408.81 5430.73 6488.46 5263.41 6425.51 5232.38Z" stroke="white" stroke-width="20"/>
<rect x="5441.5" y="4821.5" width="569" height="599" stroke="#FFFAFA"/>
<path d="M5889.53 4826.15C5827.33 4789.69 5825.22 4958.42 5756.38 4966.76C5681.1 4975.88 5673.37 4785.9 5600.97 4840.4C5537.79 4887.97 5661.13 4986.9 5623.23 5063.77C5584.74 5141.86 5438.58 5050.4 5441.03 5141.11C5444.33 5263.12 5617.68 5098.76 5666.45 5188.91C5706.89 5263.67 5571.36 5373.15 5652.43 5416.69C5722.78 5454.47 5692.38 5231.63 5769.23 5225.47C5822.38 5221.21 5851.12 5347.19 5889.53 5302.8C5931.41 5254.41 5832.22 5211.95 5849.82 5155.17C5872.68 5081.42 6011 5179.01 6011 5100.33C6011 5021.65 5886.27 5110.86 5849.82 5045.5C5809.23 4972.7 5955.05 4864.56 5889.53 4826.15Z" stroke="white" stroke-width="20"/>
<rect x="4609.5" y="4821.5" width="581" height="599" stroke="#FFFAFA"/>
<path d="M5066.97 4821L4931.01 4963.86L4766.43 4832.43L4804.17 5043.86L4609 5141L4839.18 5189.57L4824.86 5421L4944.13 5226.71L5066.97 5305.29L5026.42 5155.29L5191 5099.57L5026.42 5043.86L5066.97 4821Z" stroke="white" stroke-width="20"/>
<rect x="3846.5" y="4821.5" width="513" height="599" stroke="#FFFAFA"/>
<path d="M4165.04 5013L4140.43 4821L4090.52 5022.45L3905.88 4943.71L4031.55 5099.55L3846 5236.38L4060.13 5187.52V5421L4154.94 5187.52L4360 5282L4201.4 5099.55L4337.32 4967.61L4165.04 5013Z" stroke="white" stroke-width="20"/>
<rect x="3183.5" y="4821.5" width="413" height="599" stroke="#FFFAFA"/>
<path d="M3386.68 4953.1L3365.43 4821M3424.76 4918.08L3438.48 4851.77M3424.76 5249.65L3453.98 5421M3386.68 5302.17L3377.38 5373.79M3512.43 5041.01L3597 4988.11M3278.64 5041.01L3183 4969.01M3237.02 5067.68H3191.86M3299.89 5199.78L3217.98 5282.01M3521.73 5173.48L3586.82 5213.08M3399.2 5041.01L3467.67 4969.01L3447.25 5081.33L3530.14 5109.4L3447.25 5137.48L3467.67 5213.08L3405.8 5173.48L3345.74 5271.4L3352.95 5154.76L3237.02 5130.28L3335.32 5081.33L3316.31 4974.77L3399.2 5041.01Z" stroke="white" stroke-width="20"/>
<rect x="2284.5" y="4821.5" width="648" height="599" stroke="#FFFAFA"/>
<path d="M2456.46 4848.86L2583.54 4941.15L2650 4848.86L2679.81 4941.15L2919.49 4821L2779.45 5056.99L2933 5150.64L2726.88 5165.77L2711.98 5303.28L2618.61 5242.06L2403.65 5421L2456.46 5150.64L2284 5044.75L2477.39 5021.21L2456.46 4848.86Z" stroke="white" stroke-width="20"/>
<rect x="1539.5" y="4821.5" width="494" height="599" stroke="#FFFAFA"/>
<path d="M1835.85 5061L1791.73 4821L1755.1 5061L1539 5137.69L1755.1 5179.2L1804.45 5421L1835.85 5179.2L2034 5102.18L1835.85 5061Z" stroke="white" stroke-width="20"/>
<rect x="330.5" y="5449.5" width="515" height="600" stroke="#FFFAFA"/>
<path d="M330 5763.31C542.424 5734.74 557.84 5651.35 585.226 5449C593.152 5684.26 644.673 5722.35 846 5749.98C643.088 5763.31 608.212 5842.36 585.226 6050C558.672 5850.38 528.949 5779.5 330 5763.31Z" stroke="white" stroke-width="20"/>
<rect x="12.5" y="4821.5" width="509" height="599" stroke="#FFFAFA"/>
<path d="M499.394 4967.61C382.937 5029.76 301.899 4977.16 303.17 4821C277.745 4983.04 186.708 5025.17 69.4202 4943.71C169.556 5054.39 134.241 5162.5 12 5216.29C142.963 5190.76 218.71 5260.95 223.144 5421C282.001 5253.65 384.335 5207.71 522 5282C400.183 5193.39 374.87 5068.06 499.394 4967.61Z" stroke="white" stroke-width="20"/>
<rect x="7613.5" y="3620.5" width="1488" height="599" stroke="#FFFAFA"/>
<path d="M8690.26 3769.7C8618.27 3656.17 8464.49 3621.63 8366.7 3722.44C8358.11 3731.3 8350.15 3740.4 8342.83 3749.73M8690.26 3769.7C8762.26 3883.23 8752.86 4056.64 8642.56 4157.45C8532.26 4258.27 8390.12 4208.68 8321.69 4082.57C8259.28 3967.53 8266.81 3846.6 8342.83 3749.73M8690.26 3769.7L9102 3620M8100.11 3764.28C8052.51 3703.55 7983.83 3671.72 7914.68 3678.92C7843.74 3686.31 7777.06 3738.62 7739.03 3812.28M8100.11 3764.28C8134.04 3807.58 8157.26 3865.56 8162.27 3934.55C8174.32 4100.31 8063.42 4217.98 7938.03 4219.97C7812.64 4221.96 7727.19 4134.9 7708.46 3981.83C7700.94 3920.46 7713.57 3861.58 7739.03 3812.28M8100.11 3764.28L8342.83 3749.73M7739.03 3812.28L7613 3791.43" stroke="white" stroke-width="20"/>
<rect x="6822.5" y="3620.5" width="541" height="599" stroke="#FFFAFA"/>
<path d="M6918.5 3892.29L7069.31 4080.05C7115.73 3983.05 7239.65 3755.24 7364 3620M6822 3737.78L6843.96 4220L7253.64 4187.44L7225.32 3714.23L6822 3737.78Z" stroke="white" stroke-width="20"/>
<rect x="6214.5" y="3620.5" width="358" height="599" stroke="#FFFAFA"/>
<path d="M6393.5 4021.32L6573 3759.27H6488.32M6393.5 4021.32V4220M6393.5 4021.32L6357.78 3969.17M6393.5 4220H6502.52M6393.5 4220H6283.47M6459.42 3759.27H6214L6357.78 3969.17M6459.42 3759.27L6357.78 3969.17M6459.42 3759.27H6488.32M6488.32 3759.27L6554.24 3620" stroke="white" stroke-width="20"/>
<rect x="4491.5" y="2120.5" width="548" height="600" stroke="#FFFAFA"/>
<path d="M4723.21 2397.95C4630.22 2452.04 4568.43 2689.5 4668.33 2718.64C4719.61 2733.6 4744.29 2672.68 4796.78 2667.39C4850.09 2662.02 4880.24 2709.33 4932.15 2693.27C5051.79 2656.26 4834.93 2332.95 4723.21 2397.95Z" stroke="white" stroke-width="20"/>
<path d="M4630.6 2141.5C4664.49 2128.97 4689.24 2152.45 4705.65 2189.46C4727.93 2239.73 4729.41 2313.86 4694.77 2339.9C4660.13 2365.94 4618.56 2328.5 4599.9 2269.97C4581.24 2211.43 4596.7 2154.04 4630.6 2141.5Z" stroke="white" stroke-width="20"/>
<path d="M4824.77 2328.79C4790.58 2317.49 4780.19 2281.71 4782.88 2239.9C4786.54 2183.11 4818.4 2119.61 4859.25 2120C4900.11 2120.39 4918.46 2178.79 4908.06 2240.22C4897.65 2301.64 4858.97 2340.09 4824.77 2328.79Z" stroke="white" stroke-width="20"/>
<path d="M4594.38 2471.33C4579.66 2494.39 4558.19 2493.09 4536.92 2480.32C4508.01 2462.97 4482.82 2422.49 4493.51 2391.57C4504.2 2360.65 4539.6 2361.71 4569.21 2385.37C4598.81 2409.03 4609.09 2448.27 4594.38 2471.33Z" stroke="white" stroke-width="20"/>
<path d="M5026.59 2308.67C5046 2330.74 5042.36 2358.95 5028.26 2385.6C5009.09 2421.81 4969.2 2450.46 4942.15 2432.82C4915.09 2415.17 4920.1 2368.53 4945.12 2332.11C4970.13 2295.7 5007.18 2286.6 5026.59 2308.67Z" stroke="white" stroke-width="20"/>
<rect x="5119.5" y="2721.5" width="467" height="599" stroke="#FFFAFA"/>
<path d="M5200.19 3049.36L5140.3 3065.09L5119 2962.05L5343.28 2890.96M5200.19 3049.36L5236.27 3321L5411.64 3285.06M5200.19 3049.36L5366.52 3005.71M5532.84 2962.05L5581.53 2949.27L5559.57 2823.06L5343.28 2890.96M5532.84 2962.05L5587 3249.11L5411.64 3285.06M5532.84 2962.05L5366.52 3005.71M5343.28 2890.96L5366.52 3005.71M5343.28 2890.96C5330.63 2806.29 5276.73 2710.44 5229.48 2762.36C5175.09 2822.12 5268.74 2914.58 5343.28 2890.96ZM5343.28 2890.96C5330.4 2804.69 5364.97 2695.3 5419.15 2726.42C5481.72 2762.36 5414.16 2868.49 5343.28 2890.96ZM5366.52 3005.71L5411.64 3285.06" stroke="white" stroke-width="20"/>
<rect x="4002.5" y="3620.5" width="444" height="599" stroke="#FFFAFA"/>
<path d="M4012.89 3926.22L4288.5 3620C4313.88 3620 4340.74 3631.22 4365.07 3649.3M4012.89 3926.22L4007.45 4073.11M4012.89 3926.22C4047.47 3923.03 4086.63 3934.71 4123.32 3956.41M4252.55 4121.2L4447 3775.07C4442.94 3752.68 4433.44 3730.12 4420.35 3709.41M4252.55 4121.2L4127.28 4170.6M4252.55 4121.2C4244.59 4088.23 4227.85 4056.63 4205.87 4028.8M4007.45 4073.11L4002 4220L4127.28 4170.6M4007.45 4073.11C4007.45 4073.11 4043.6 4080.84 4073.9 4105.5C4104.2 4130.15 4127.28 4170.6 4127.28 4170.6M4205.87 4028.8L4420.35 3709.41M4205.87 4028.8C4182.78 3999.57 4153.91 3974.51 4123.32 3956.41M4420.35 3709.41C4405.6 3686.07 4386.29 3665.08 4365.07 3649.3M4123.32 3956.41L4365.07 3649.3" stroke="white" stroke-width="20"/>
<rect x="3030.5" y="3620.5" width="720" height="599" stroke="#FFFAFA"/>
<path d="M3751 3620L3030 3880.77L3232.57 3955.04M3751 3620L3232.57 3955.04M3751 3620L3662.9 4148.66L3413.82 4037.74M3751 3620L3368.32 4017.48M3232.57 3955.04L3278.73 4220M3368.32 4017.48L3278.73 4220M3368.32 4017.48L3413.82 4037.74M3278.73 4220L3413.82 4037.74" stroke="white" stroke-width="20"/>
<rect x="2537.5" y="3620.5" width="242" height="599" stroke="#FFFAFA"/>
<path d="M2565.65 3869.39C2580.08 3881.77 2598.47 3885.57 2619.14 3879.9C2634.37 3875.72 2647.79 3865.74 2657.28 3852.05L2658.74 3851.9C2674.15 3878.28 2698.51 3888.72 2727.26 3880.83C2733.71 3879.06 2739.84 3876.25 2745.48 3872.56M2565.65 3869.39C2554.96 3860.23 2546.44 3846.35 2540.78 3828.13C2529.58 3792.1 2544.48 3752.67 2569.4 3733.73M2565.65 3869.39L2651.88 4220H2665.12L2745.48 3872.56M2569.4 3733.73C2568.49 3731.32 2567.63 3728.83 2566.83 3726.25C2553.53 3683.43 2577.06 3635.82 2610.49 3623.49C2643.93 3611.15 2682.9 3632 2694.93 3678.98C2699.16 3695.48 2698.72 3711.39 2694.81 3725.52M2569.4 3733.73C2574.1 3730.16 2579.15 3727.32 2584.44 3725.37M2694.81 3725.52C2687.58 3751.61 2668.52 3771.62 2645.19 3778.02M2694.81 3725.52C2727.72 3714.9 2765.24 3735.85 2777.01 3781.79C2786.88 3820.34 2771.27 3855.67 2745.48 3872.56" stroke="white" stroke-width="20"/>
<rect x="1636.5" y="3620.5" width="649" height="599" stroke="#FFFAFA"/>
<path d="M1636 3826.24L1818.3 4220L2246.33 4076.23L2286 3675.63C2286 3675.63 2186.99 3847.3 2101 3827.52C2018.66 3808.59 1973.91 3620 1973.91 3620C1973.91 3620 1953.18 3849.08 1861 3894.93C1777.25 3936.59 1636 3826.24 1636 3826.24Z" stroke="white" stroke-width="20"/>
<rect x="840.5" y="3620.5" width="544" height="599" stroke="#FFFAFA"/>
<path d="M1054.51 4220L840 3799.94M1054.51 4220L1385 3892.37M1054.51 4220L1112.5 3846.16M840 3799.94L1010.06 3620M840 3799.94L1112.5 3846.16M1385 3892.37L1112.5 3846.16M1385 3892.37L1273.86 3656.2M1010.06 3620L1112.5 3846.16M1010.06 3620L1273.86 3656.2M1112.5 3846.16L1273.86 3656.2" stroke="white" stroke-width="20"/>
<rect x="12.5" y="3620.5" width="577" height="599" stroke="#FFFAFA"/>
<path d="M371.876 4220L12 3923.91M371.876 4220L447.569 3821.16M371.876 4220L590 3775.37M371.876 4220L172.473 3883.37M12 3923.91L55.2719 3723.58M12 3923.91L172.473 3883.37M447.569 3821.16L172.473 3883.37M447.569 3821.16L272.581 3620M447.569 3821.16L485.008 3620M447.569 3821.16L590 3775.37M55.2719 3723.58L172.473 3883.37M55.2719 3723.58L272.581 3620M172.473 3883.37L272.581 3620M272.581 3620H485.008M485.008 3620L590 3775.37" stroke="white" stroke-width="20"/>
<rect x="7930.5" y="2420.5" width="905" height="600" stroke="#FFFAFA"/>
<path d="M7930 2897.72C7930 2897.72 7987.68 2671.11 8148.82 2601.25C8254.49 2555.45 8399.32 2633.68 8399.32 2633.68C8399.32 2633.68 8441.19 2489.05 8502.01 2451.87C8675.59 2345.74 8836 2538.69 8836 2538.69M7930 2897.72C7930 2897.72 8281.55 3078.97 8475.14 3001.93C8716.62 2905.81 8836 2538.69 8836 2538.69M7930 2897.72C7930 2897.72 8245.44 2835.8 8422.35 2765.69C8599.26 2695.59 8836 2538.69 8836 2538.69" stroke="white" stroke-width="20"/>
<rect x="390.5" y="566.5" width="514" height="600" stroke="#FFFAFA"/>
<path d="M631.786 654.254C718.801 500.413 939.612 549.226 900.374 788.74C861.136 1028.25 587.133 1167 587.133 1167C587.133 1167 398.769 961.65 390.285 759.281C381.801 556.911 565.232 540.563 631.786 654.254ZM631.786 654.254C614.781 682.006 600.919 718.295 587.133 770.808" stroke="white" stroke-width="20"/>
<rect x="4553.5" y="5496.5" width="584" height="599" stroke="#FFFAFA"/>
<path d="M4769.96 6096C4769.96 6096 5049.67 5999.82 5122.68 5784.26C5195.7 5568.69 4992.21 5456.94 4838.5 5597C4731.58 5443.99 4568.87 5462.57 4553.71 5668.19C4538.56 5873.8 4769.96 6096 4769.96 6096Z" stroke="white" stroke-width="20"/>
<rect x="5619.5" y="2420.5" width="460" height="600" stroke="#FFFAFA"/>
<path d="M5887.18 3021C6051.43 2827.4 6166.7 2500.6 5994.9 2428.67C5823.1 2356.74 5754.82 2756.85 5839.99 2732.38C5925.15 2707.91 5762.91 2447.45 5665.19 2532.59C5567.47 2617.73 5617.26 2873.73 5887.18 3021Z" stroke="white" stroke-width="20"/>
<rect x="5353.5" y="1220.5" width="990" height="599" stroke="#FFFAFA"/>
<path d="M6072.24 1278.46C6167.22 1325.98 6259.61 1402.14 6344 1505.71C6100.76 1910.33 5598.3 1925.83 5353 1543.14C5435.05 1406.65 5533.7 1314.47 5640.12 1264.57M6072.24 1278.46C6120.08 1372.01 6127.1 1496.35 6071.19 1608.71C5990.24 1771.42 5822.87 1791.65 5706.4 1693.48C5589.92 1595.3 5559.64 1446.73 5627.4 1290.41C5631.29 1281.42 5635.54 1272.81 5640.12 1264.57M6072.24 1278.46C5927.87 1206.23 5777.51 1200.16 5640.12 1264.57M5944.02 1509.93L5893.8 1431.19L5917.75 1334.86L5850.54 1411.74L5771.68 1386.18L5818.09 1453.43L5784.1 1572.92L5867.54 1489.55L5944.02 1509.93Z" stroke="white" stroke-width="20"/>
<rect x="3717.5" y="2420.5" width="408" height="600" stroke="#FFFAFA"/>
<path d="M3941.39 2699.82C3941.39 2699.82 3928.32 2593.06 3899.77 2511.43M4001.56 2682.96C3996.54 2612.16 3984.95 2567.19 3971.01 2539.74M4055.19 2903.07C4056.99 2889.22 4058.95 2870.88 4060.65 2849.74M3875.62 2956.06C3875.62 2956.06 3855.34 2936.62 3831.39 2910.84M3967.05 2755.77C3978.41 2786.78 3981.68 2824.19 3981.68 2849.74M3897.37 2772.89C3909.3 2802.06 3914.54 2829.09 3920.08 2859.46M3831.39 2910.84C3777.39 2852.71 3693.95 2748.98 3722.96 2689.57C3760.42 2612.85 3851.43 2719.68 3851.43 2719.68C3851.43 2719.68 3729.66 2451.53 3816.71 2422C3852.46 2409.87 3879.88 2454.55 3899.77 2511.43M3831.39 2910.84C3831.39 2910.84 3790.22 2946.47 3802.47 2988.93C3825.57 3069.02 4145.11 2985.69 4125.1 2886.16C4115.67 2839.26 4060.65 2849.74 4060.65 2849.74M4060.65 2849.74C4070.93 2721.98 4069.96 2493.32 3971.01 2539.74M3971.01 2539.74C3947.07 2492.59 3916.2 2497.16 3899.77 2511.43" stroke="white" stroke-width="20"/>
<rect x="3027.5" y="2420.5" width="439" height="600" stroke="#FFFAFA"/>
<path d="M3344.15 2715.65C3259.41 2679.93 3207.19 2743.55 3251.24 2790.41M3440.79 2885.62C3424.53 2909.19 3393.47 2925.84 3338.29 2921.88C3286.01 2918.14 3259.19 2897.13 3247.55 2871.92M3440.79 2885.62C3448.6 2928.39 3437.4 3012.11 3332.81 3000.99C3307.03 2998.25 3287.8 2991.46 3273.71 2982.17M3440.79 2885.62C3459.15 2859.02 3456.79 2818.82 3450.79 2793.94M3247.55 2871.92C3234.91 2844.54 3241.18 2811.02 3251.24 2790.41M3247.55 2871.92C3235.46 2902.13 3230.62 2953.79 3273.71 2982.17M3107.4 2665.4C3115.95 2665.4 3123.75 2664.22 3130.88 2662.03M3276.41 2981.18C3275.51 2981.52 3274.61 2981.85 3273.71 2982.17M3130.88 2662.03C3227.01 2632.57 3202.16 2410.76 3294.83 2420.3C3390.01 2430.1 3306.46 2645.8 3306.46 2645.8C3361.36 2636.17 3463.88 2650.99 3466.9 2733.29C3467.85 2759.06 3461.68 2778.99 3450.79 2793.94M3130.88 2662.03C3130.88 2662.03 3121.11 2623.28 3094.07 2620.77C2995.78 2611.64 3016.64 2997.08 3085.34 3018.06C3136.2 3033.58 3150.59 2982.62 3150.59 2982.62M3150.59 2982.62C3135.43 2975.93 3122.78 2966.35 3112.52 2954.13M3150.59 2982.62C3183.31 2997.09 3230.18 2997.75 3273.71 2982.17M3450.79 2793.94C3407.02 2854.04 3297.85 2839.98 3251.24 2790.41" stroke="white" stroke-width="20"/>
<rect x="2272.5" y="2420.5" width="504" height="600" stroke="#FFFAFA"/>
<path d="M2371.09 2737.51C2391.54 2761.17 2445.47 2794.44 2497.59 2738.18M2706.77 2716.32C2685.43 2737.41 2630.78 2769.52 2582.9 2729.27M2513.45 2922.28C2538.15 2901.18 2607.31 2855.04 2686.36 2839.22M2776.01 2704.53C2789.32 2888.3 2666.75 3018.76 2528.14 3020.96C2389.54 3023.17 2295.09 2926.65 2274.38 2756.95C2253.67 2587.25 2371.42 2434.79 2502.33 2421.11C2633.25 2407.43 2762.69 2520.76 2776.01 2704.53Z" stroke="white" stroke-width="20"/>
<rect x="6393.5" y="1820.5" width="501" height="599" stroke="#FFFAFA"/>
<path d="M6482.31 2136.98C6502.63 2160.61 6556.24 2193.82 6608.06 2137.65M6815.99 2115.83C6794.78 2136.88 6740.46 2168.94 6692.86 2128.75M6599.02 2251.55C6605.62 2343.01 6706.31 2372.07 6714.81 2239.4M6894.01 2104.06C6907.25 2287.52 6785.4 2417.76 6647.62 2419.96C6509.84 2422.17 6415.95 2325.81 6395.36 2156.39C6374.78 1986.97 6491.83 1834.77 6621.96 1821.11C6752.1 1807.45 6880.77 1920.59 6894.01 2104.06Z" stroke="white" stroke-width="20"/>
<rect x="768.5" y="2420.5" width="500" height="600" stroke="#FFFAFA"/>
<path d="M1107 2576.22L1123.34 2651.36M941.176 2638.51L969.766 2716.62M1268.01 2704.53C1281.23 2888.3 1159.62 3018.76 1022.12 3020.96C884.612 3023.17 790.903 2926.65 770.359 2756.95C749.815 2587.25 866.631 2434.79 996.509 2421.11C1126.39 2407.43 1254.8 2520.76 1268.01 2704.53ZM1033.99 2860.01C1018.06 2815.05 1036.07 2771.07 1066.69 2757.85C1097.32 2744.62 1125.11 2760.23 1141.69 2800.97C1158.27 2841.72 1142.88 2890.78 1114.77 2906.19C1086.67 2921.6 1049.92 2904.96 1033.99 2860.01Z" stroke="white" stroke-width="20"/>
<rect x="3534.5" y="9622.5" width="503" height="599" stroke="#FFFAFA"/>
<path d="M3668.77 9942.8C3683.46 9913.69 3734.51 9877.66 3776.02 9913.23M3954.74 9864.82C3929.27 9844.1 3879.14 9851.99 3860.22 9895.64M3713.14 10044.7C3759.98 10184.6 3965.42 10117.5 3949.54 9969.42C3949.54 9969.42 3904.61 9995.67 3840.52 10016.1C3776.42 10036.5 3713.14 10044.7 3713.14 10044.7ZM4037.01 9906.06C4050.3 10089.5 3927.96 10219.8 3789.64 10222C3651.31 10224.2 3557.04 10127.8 3536.37 9958.39C3515.71 9788.97 3633.22 9636.77 3763.88 9623.11C3894.53 9609.45 4023.72 9722.59 4037.01 9906.06Z" stroke="white" stroke-width="20"/>
<rect x="5084.5" y="1220.5" width="310" height="599" stroke="#FFFAFA"/>
<path d="M5395 1620.67C5395 1730.76 5325.38 1820 5239.5 1820C5153.62 1820 5084 1730.76 5084 1620.67C5084 1470.67 5239.5 1220 5239.5 1220C5239.5 1220 5395 1467.65 5395 1620.67Z" stroke="white" stroke-width="20"/>
<rect x="4269.5" y="1220.5" width="563" height="599" stroke="#FFFAFA"/>
<path d="M4635.75 1358.22C4617.94 1279.51 4562.79 1201.6 4457.63 1223.86C4352.47 1246.12 4312.78 1384.96 4351.32 1499.22C4302.41 1513.87 4262.06 1573.54 4270 1639.28C4278.74 1711.56 4318.57 1752.67 4377.01 1751.73C4406.19 1751.26 4433.69 1737.18 4453.21 1713.44C4487.97 1783.34 4548.27 1821.22 4625.94 1819.97C4736.58 1818.19 4842.9 1707.12 4832.26 1559.36C4822.77 1427.45 4742.82 1345.5 4635.75 1358.22ZM4635.75 1358.22C4640.13 1380.21 4643.63 1409.89 4639.03 1461.57" stroke="white" stroke-width="20"/>
<rect x="3162.5" y="4076.5" width="518" height="600" stroke="#FFFAFA"/>
<path d="M3410.11 4372.09L3423.13 4174.04M3410.11 4372.09L3569.55 4273.07M3410.11 4372.09L3583.38 4501.5M3410.11 4372.09L3416.62 4577.98M3410.11 4372.09L3259.62 4473.07M3410.11 4372.09L3267.75 4265.22M3423.13 4174.04L3516.68 4076M3423.13 4174.04L3332.83 4076M3569.55 4273.07L3585.01 4152.47M3569.55 4273.07L3671.24 4305.42M3583.38 4501.5L3681 4443.66M3583.38 4501.5L3598.03 4612.29M3416.62 4577.98L3488.21 4677M3416.62 4577.98L3332.83 4665.23M3259.62 4473.07V4597.59M3259.62 4473.07L3162 4446.6M3267.75 4265.22L3259.62 4158.36M3267.75 4265.22L3162 4305.42" stroke="white" stroke-width="20"/>
<rect x="2941.5" y="1220.5" width="306" height="599" stroke="#FFFAFA"/>
<path d="M3091.47 1404.76H3248L2959.48 1820L3064.8 1489.14H2941L3162.97 1220L3091.47 1404.76Z" stroke="white" stroke-width="20"/>
<rect x="2283.5" y="1220.5" width="406" height="599" stroke="#FFFAFA"/>
<path d="M2283 1509.6L2372.72 1220H2597.91L2536.01 1379.29H2690L2360.44 1820L2477.7 1509.6H2283Z" stroke="white" stroke-width="20"/>
<rect x="1524.5" y="1220.5" width="509" height="599" stroke="#FFFAFA"/>
<path d="M1664.59 1257.67C1678.84 1234.79 1701.52 1220 1727.07 1220C1770.21 1220 1805.18 1262.17 1805.18 1314.19C1805.18 1366.2 1773.94 1408.37 1695.83 1408.37C1617.73 1408.37 1524 1370.7 1524 1370.7M1947.71 1294.42C1989.4 1286.28 2034 1331.6 2034 1385.12C2034 1438.63 2019.46 1520 1837.17 1520L1650.05 1520M1821.38 1782.33C1835.66 1805.21 1858.39 1820 1883.99 1820C1927.21 1820 1962.25 1777.83 1962.25 1725.81C1962.25 1673.8 1930.95 1631.63 1852.69 1631.63C1774.43 1631.63 1524 1669.3 1524 1669.3" stroke="white" stroke-width="20"/>
<rect x="797.5" y="1220.5" width="476" height="599" stroke="#FFFAFA"/>
<path d="M799.374 1556.16C820.042 1725.72 914.319 1822.17 1052.66 1819.96C1145.93 1818.48 1231.94 1758.73 1274 1663.67C1268.22 1664.21 1262.41 1664.53 1256.56 1664.63C1118.22 1666.83 1023.95 1570.39 1003.28 1400.82C995.343 1335.72 1007.78 1273.15 1033.51 1220C1031.31 1220.16 1029.1 1220.35 1026.89 1220.58C896.229 1234.25 778.705 1386.59 799.374 1556.16Z" stroke="white" stroke-width="20"/>
<rect x="12.5" y="1220.5" width="534" height="599" stroke="#FFFAFA"/>
<path d="M96.3377 1437.89L181.455 1493.75M371.542 1701.3L315.407 1623.06M203.808 1820L239.52 1642.82M408.07 1402.36L329.254 1477.82M156.473 1220L227.371 1444.01M547 1459.16L345.313 1519.2M306.225 1791.76L277.901 1642.79M12 1549.04L171.787 1546.31M306.261 1288.55L278.687 1438.93M130.488 1661.34L190.189 1607.32M474.899 1641.55L341.734 1581.81M329.254 1477.82C336.715 1489.53 342.316 1503.45 345.313 1519.2M329.254 1477.82C316.559 1457.88 298.481 1444.32 278.687 1438.93M345.313 1519.2C346.285 1524.31 346.983 1529.61 347.382 1535.09C348.625 1552.15 346.475 1567.89 341.734 1581.81M341.734 1581.81C330.864 1613.71 306.37 1636.04 277.901 1642.79M277.901 1642.79C272.371 1644.1 266.691 1644.82 260.931 1644.92C253.408 1645.04 246.258 1644.32 239.52 1642.82M239.52 1642.82C218.809 1638.19 201.989 1626.03 190.189 1607.32M190.189 1607.32C181.157 1593 175.066 1574.84 172.421 1553.28C172.135 1550.95 171.925 1548.62 171.787 1546.31M171.787 1546.31C170.673 1527.53 174.381 1509.54 181.455 1493.75M181.455 1493.75C191.43 1471.48 208.096 1453.59 227.371 1444.01M227.371 1444.01C235.216 1440.12 243.494 1437.6 251.929 1436.72C260.972 1435.78 269.995 1436.57 278.687 1438.93" stroke="white" stroke-width="20"/>
<rect x="7529.5" y="20.5" width="284" height="599" stroke="#FFFAFA"/>
<path d="M7529 122.17L7566.63 467.746M7583.21 620L7574.59 540.868M7676.15 20V438.698M7676.15 607.98V525.843M7814 185.275L7787.67 461.659M7773.73 607.98L7781.55 525.843" stroke="white" stroke-width="20"/>
<rect x="7034.5" y="20.5" width="244" height="599" stroke="#FFFAFA"/>
<path d="M7034 171.077C7041.07 100.019 7079.26 20 7170.73 20C7262.2 20 7284.6 103.644 7277.9 171.077C7265.57 294.949 7139.38 311.237 7126.82 437.48M7119.04 527.378L7110.84 620" stroke="white" stroke-width="20"/>
<rect x="6493.5" y="20.5" width="290" height="599" stroke="#FFFAFA"/>
<path d="M6783.65 190.25C6752.08 63.8211 6547.56 40.3058 6547.56 172.25C6547.56 295.25 6783.65 278.75 6783.65 438.389C6783.65 598.027 6480.67 541.228 6493.41 336.76M6703.66 20L6605 620" stroke="white" stroke-width="20"/>
<rect x="5913.5" y="20.5" width="329" height="599" stroke="#FFFAFA"/>
<path d="M6243 90.6464C6154.09 -56.1992 5996.18 36.9114 5962.44 268.07C5932.65 472.219 6024.14 699.732 6211.01 592.564M5913 260.584H6161.33M5913 384.107H6115.78" stroke="white" stroke-width="20"/>
<rect x="1639.5" y="2420.5" width="280" height="600" stroke="#FFFAFA"/>
<path d="M1917.77 3021H1663.32C1724.77 2703.46 1683.13 2414.75 1821.86 2420.07C1876.84 2422.18 1931.84 2493.6 1917.77 2629.25M1639 2735.49L1837.43 2733.88" stroke="white" stroke-width="20"/>
<rect x="3717.5" y="1220.5" width="291" height="599" stroke="#FFFAFA"/>
<path d="M3717 1818.86C3976.03 1848.08 4098.34 1304.55 3935.03 1229.61C3864.2 1197.11 3782.34 1249.72 3752.18 1347.13C3718.52 1455.88 3739.65 1546.89 3810.48 1579.4C3837.86 1591.96 3868.33 1592.28 3897.15 1582.31" stroke="white" stroke-width="20"/>
<rect x="3534.5" y="1520.5" width="311" height="599" stroke="#FFFAFA"/>
<path d="M3718.23 1758.03C3670.99 1794.92 3620.91 1833.17 3583.16 1881.21C3509.39 1975.09 3506.07 2112.8 3661.11 2119.72C3816.15 2126.65 3869.5 2001.89 3824.49 1902.7C3799.72 1848.12 3757.03 1802.38 3718.23 1758.03ZM3718.23 1758.03C3750.25 1733.01 3780.98 1708.62 3805.68 1682.22C3875.11 1608.02 3851.63 1524.23 3760.15 1520.15C3668.66 1516.06 3611.93 1597.58 3655.85 1675.53C3671.71 1703.68 3694.23 1730.59 3718.23 1758.03Z" stroke="white" stroke-width="20"/>
<rect x="3682.5" y="2420.5" width="269" height="600" stroke="#FFFAFA"/>
<path d="M3698.59 2420H3952C3952 2420 3753.14 2691.85 3682 3021" stroke="white" stroke-width="20"/>
<rect x="4156.5" y="20.5" width="286" height="599" stroke="#FFFAFA"/>
<path d="M4252.54 275.063C4284.87 251.96 4322.39 245.734 4355.04 261.351C4418.26 291.594 4442.36 380.944 4412.55 489.83C4385.85 587.356 4312.96 641.898 4249.74 611.655C4042.09 512.318 4211.96 -0.972132 4443 20.6644" stroke="white" stroke-width="20"/>
<rect x="2637.5" y="20.5" width="327" height="599" stroke="#FFFAFA"/>
<path d="M2965 20L2738.56 20L2699.79 254.292C2699.79 254.292 2867.62 161.425 2914.83 254.292C3006.62 434.88 2637 620 2637 620" stroke="white" stroke-width="20"/>
<rect x="6026.5" y="7221.5" width="317" height="600" stroke="#FFFAFA"/>
<path d="M6301.49 7221L6026 7668.79H6344M6234.14 7822L6287.69 7382.1" stroke="white" stroke-width="20"/>
<rect x="4558.5" y="7221.5" width="295" height="600" stroke="#FFFAFA"/>
<path d="M4597.26 7221H4851.03L4620.48 7455.68C4620.48 7455.68 4780.23 7368.43 4834.45 7455.68C4943.92 7631.86 4558 7822 4558 7822" stroke="white" stroke-width="20"/>
<rect x="0.359742" y="-0.646408" width="336.383" height="507.53" transform="matrix(-0.228203 -0.973614 0.947686 -0.319203 927.381 564.944)" stroke="#FFFAFA"/>
<path d="M1134.27 462.973C1134.27 462.973 829.471 434.964 870.71 270.192C920.693 70.4844 1408.25 403.122 1408.25 403.122L1333.15 82.6881" stroke="white" stroke-width="20"/>
<rect x="559.5" y="20.5" width="177" height="599" stroke="#FFFAFA"/>
<path d="M3873.41 7375.75L4051.41 7104.5L3952.34 7704.5" stroke="white" stroke-width="20"/>
<rect x="12.5" y="20.5" width="296" height="599" stroke="#FFFAFA"/>
<path d="M295.598 350.107C258.333 557.998 181.43 634.492 106.474 617.779C31.519 601.067 -10.1375 480.925 24.16 289.585C58.4576 98.2464 138.328 5.20101 213.283 21.9137C288.239 38.6264 332.862 142.217 295.598 350.107Z" stroke="white" stroke-width="20"/>
<line x1="12" y1="12021.5" x2="10204" y2="12021.5" stroke="#FFFAFA"/>
</svg>
