<svg width="1703" height="3853" viewBox="0 0 1703 3853" fill="none" xmlns="http://www.w3.org/2000/svg">
<g filter="url(#filter0_dd_1440_542)">
<path d="M1166.98 3542.12C1153.54 3536.16 1126.35 3460.72 1117.09 3469.97C1107.83 3479.21 1094.08 3542.12 1085.42 3542.12C1076.75 3542.12 993.693 3519.76 998.175 3527.51C1002.66 3535.26 1068.09 3585.35 1067.79 3596.98C1067.49 3608.61 1039.7 3670.63 1048.37 3670.63C1057.03 3670.63 1114.7 3616.96 1126.35 3617.56C1138 3618.15 1209.71 3677.49 1215.39 3670.63C1221.06 3663.77 1183.72 3605.33 1187.3 3596.98C1190.89 3588.63 1267.97 3527.51 1256.92 3527.51C1245.86 3527.51 1180.43 3548.08 1166.98 3542.12Z" stroke="white" stroke-width="15" stroke-linecap="round"/>
<path d="M754.096 3549.45C742.546 3544.36 709.222 3466.85 701.266 3474.75C693.309 3482.64 669.193 3544.81 661.751 3544.81C654.308 3544.81 594.328 3542.83 598.177 3549.45C602.027 3556.08 657.284 3597.24 657.028 3607.18C656.771 3617.11 644.001 3665.71 651.444 3665.71C658.887 3665.71 701.566 3620.34 711.576 3620.85C721.585 3621.36 759.529 3671.57 764.406 3665.71C769.282 3659.85 753.165 3614.31 756.245 3607.18C759.325 3600.05 827.591 3553.35 818.095 3553.35C808.598 3553.35 765.645 3554.55 754.096 3549.45Z" stroke="white" stroke-width="15" stroke-linecap="round"/>
<path d="M303.795 3459.19C293.388 3458.12 268.837 3539.77 261.631 3539.77C254.425 3539.77 199.185 3532.3 197.05 3539.77C194.915 3547.24 261.631 3595.27 261.631 3602.21C261.631 3609.15 246.153 3675.85 250.69 3680.92C255.226 3685.99 298.725 3615.02 303.795 3616.35C308.866 3617.69 374.514 3684.66 378.517 3680.92C382.52 3677.19 342.223 3609.68 342.223 3602.21C342.223 3594.74 414.543 3545.64 418.813 3539.77C423.083 3533.9 352.898 3539.77 342.223 3539.77C331.549 3539.77 314.203 3460.26 303.795 3459.19Z" stroke="white" stroke-width="15" stroke-linecap="round"/>
<path d="M976.637 3290.78C986.827 3248.11 1003.25 3162.07 987.426 3159.18C967.646 3155.58 928.085 3236.7 926.287 3258.33C924.488 3279.96 922.69 3141.16 897.515 3117.72C872.34 3094.29 874.138 3240.3 881.331 3258.33C888.524 3276.36 793.218 3173.6 759.052 3179.01C724.886 3184.42 843.567 3337.65 910.102 3323.22" stroke="white" stroke-width="15" stroke-linecap="round"/>
<path d="M197 3277.18C197 3277.18 237.811 3162.18 248.37 3162.18C258.93 3162.18 296.03 3267.81 305.163 3267.81C314.295 3267.81 368.805 3162.18 382.789 3162.18C396.773 3162.18 413.04 3242.54 422.743 3243.11C432.447 3243.68 502.653 3162.18 515.495 3162.18C528.338 3162.18 574 3250.77 574 3250.77" stroke="white" stroke-width="15" stroke-linecap="round"/>
<path d="M875.982 2881.25C875.982 2881.25 904.955 2837.11 953.328 2828.83C1002.49 2820.41 1071.07 2847.74 1065.54 2897.23C1062.56 2923.85 1048.29 2941.75 1021.46 2941.63C994.711 2941.5 977.472 2923.39 972.163 2897.23C960.796 2841.21 1032.72 2798.13 1089.98 2798.03C1147.36 2797.92 1220.96 2841.13 1209.41 2897.23C1204 2923.46 1187.34 2942.41 1160.52 2941.63C1134.22 2940.86 1116.02 2923.04 1111.22 2897.23C1100.98 2842.15 1169.16 2792.81 1225.04 2798.03C1261.52 2801.43 1286.2 2818.62 1301.98 2851.63" stroke="white" stroke-width="15" stroke-linecap="round"/>
<path d="M203.006 2871.78C203.006 2871.78 249.672 2823.7 290.059 2813.9C343.715 2800.89 382.263 2876.09 378.8 2913.32C375.337 2950.54 338.976 2954.01 315.602 2950.54C292.227 2947.08 274.48 2918.38 282.704 2886.05C290.928 2853.71 345.976 2792.93 422.742 2799.08C499.508 2805.24 536.567 2847.08 506.641 2890.08C495.681 2905.82 481.407 2913.82 466.498 2918.38C451.589 2922.94 420.739 2914.71 423.251 2883.39C425.764 2852.07 490.026 2799.58 544.966 2808.89C594.171 2817.22 640.364 2854.73 637.272 2893.28C634.18 2931.83 597.753 2928.91 589.926 2928.28C582.099 2927.65 560.966 2922.93 559.022 2894.28C557.078 2865.63 579.125 2775.86 696.854 2800.16" stroke="white" stroke-width="15" stroke-linecap="round"/>
<path d="M1323.14 2455.27C1311.59 2455.27 1331.28 2313.14 1282.04 2329.19C1235.23 2344.45 1300.69 2455.27 1289.69 2455.27C1278.69 2455.27 1201.81 2448.89 1196.69 2483.64C1190.97 2522.45 1291.69 2500.73 1294.69 2505.71C1297.69 2510.69 1255.15 2569.63 1282.04 2587.67C1309.91 2606.35 1345.5 2537.23 1351.59 2537.23C1357.69 2537.23 1389.2 2650.46 1414.82 2619.19C1435.64 2593.77 1386.01 2537.23 1395.85 2537.23C1405.69 2537.23 1479.09 2542.98 1490.69 2505.71C1504.86 2460.17 1378.19 2492.69 1370.56 2483.64C1362.93 2474.6 1431.62 2402.01 1395.85 2382.77C1360.53 2363.78 1334.69 2455.27 1323.14 2455.27Z" stroke="white" stroke-width="15" stroke-linecap="round"/>
<path d="M1012.24 2547.83C970.974 2504.12 888.992 2414.64 891.194 2406.41" stroke="white" stroke-width="15" stroke-linecap="round"/>
<path d="M1000.46 2387.92C995.409 2402.38 953.683 2445.91 933.451 2465.87L907.903 2480.62" stroke="white" stroke-width="15" stroke-linecap="round"/>
<path d="M537 2433.91C571.054 2438.29 653.616 2461.35 711.43 2518.49" stroke="white" stroke-width="15" stroke-linecap="round"/>
<path d="M549 2508.92C584.304 2498.47 656.76 2462.54 664.156 2402.51" stroke="white" stroke-width="15" stroke-linecap="round"/>
<path d="M197 2542.6C236.629 2515.27 324.309 2457.26 358 2443.84" stroke="white" stroke-width="15" stroke-linecap="round"/>
<path d="M208.18 2409.92C239.237 2438.25 301.351 2499.96 301.351 2520.24" stroke="white" stroke-width="15" stroke-linecap="round"/>
<path d="M1007.58 2115.36C1035.99 2099.99 1079.12 2104.82 1079.53 2125.76C1080.01 2149.93 1044.57 2165.35 1013.67 2165.35C977.045 2165.35 953.002 2135.42 973.554 2105.26C995.249 2073.43 1042.16 2060.75 1075.93 2064.59C1114.17 2068.94 1141 2110.35 1099.5 2156.35" stroke="white" stroke-width="15" stroke-linecap="round"/>
<path d="M559.061 2153.46C531.789 2087.3 579.004 2052.06 621.787 2042.2C685.803 2027.43 782.689 2042.2 786.782 2105.35C790.875 2168.5 736.952 2205.04 652.474 2189.26C588.49 2177.3 582.814 2123.53 602.986 2097.12C625.629 2067.48 674.893 2062.65 707.577 2071.03C744.878 2080.59 751.948 2105.35 744.312 2131.18C734.818 2163.29 682.466 2166.87 659.968 2153.46C637.469 2140.05 649.714 2113.68 663.971 2105.35" stroke="white" stroke-width="15" stroke-linecap="round"/>
<path d="M213.026 2063.92C242.602 2044.02 320.512 2048.21 350.089 2068.11C381.421 2089.19 377.107 2133.07 350.089 2157C316.525 2186.72 249.185 2185.74 213.026 2157C190.991 2139.48 192.336 2115.08 213.026 2096.74C238.746 2073.95 294.495 2071.11 323.047 2092.12C342.208 2106.22 338.932 2127.96 318.103 2138.6C282.098 2157 243.158 2130.67 243.158 2130.67" stroke="white" stroke-width="15" stroke-linecap="round"/>
<path d="M1265.97 1613.12C1272.25 1627.29 1285.34 1647.26 1287.45 1674.24" stroke="white" stroke-width="15" stroke-linecap="round"/>
<path d="M1360.37 1862.55C1358.3 1852 1352.1 1837.93 1355.75 1815.9" stroke="white" stroke-width="15" stroke-linecap="round"/>
<path d="M1178.5 1625.3C1198.48 1636.76 1242.92 1666.96 1260.9 1696.03" stroke="white" stroke-width="15" stroke-linecap="round"/>
<path d="M1432.7 1842.76C1419.37 1837.01 1386.9 1819.86 1378.49 1799.01" stroke="white" stroke-width="15" stroke-linecap="round"/>
<path d="M1244.77 1720.27C1231.95 1717.04 1204.16 1708.74 1195.6 1701.39" stroke="white" stroke-width="15" stroke-linecap="round"/>
<path d="M1393.66 1775.42C1417.09 1781.33 1467.86 1796.49 1483.5 1809.92" stroke="white" stroke-width="15" stroke-linecap="round"/>
<path d="M875.705 1741.25C916.209 1741.93 959.785 1736.61 999.497 1745.32" stroke="white" stroke-width="15" stroke-linecap="round"/>
<path d="M874.857 1783.74C892.352 1796.55 905.356 1812.19 923.206 1824.57" stroke="white" stroke-width="15" stroke-linecap="round"/>
<path d="M838.975 1838.03C840.149 1859.53 839.866 1881.44 847.097 1901.92" stroke="white" stroke-width="15" stroke-linecap="round"/>
<path d="M690.641 1573.12C705.461 1595.82 714.954 1619 727.323 1642.34" stroke="white" stroke-width="15" stroke-linecap="round"/>
<path d="M649.801 1635.39L691.921 1682.24" stroke="white" stroke-width="15" stroke-linecap="round"/>
<path d="M604.501 1701.67C624.753 1709.07 658.135 1724.66 680.085 1718.43" stroke="white" stroke-width="15" stroke-linecap="round"/>
<path d="M298.555 1629.12C285.796 1630.29 252.699 1639.51 222.389 1667.01" stroke="white" stroke-width="16" stroke-linecap="round"/>
<path d="M325.897 1651.78C304.304 1653.76 248.295 1669.34 197 1715.83" stroke="white" stroke-width="16" stroke-linecap="round"/>
<path d="M280.197 1845.51C304.539 1843.73 367.677 1829.66 425.5 1787.7" stroke="white" stroke-width="16" stroke-linecap="round"/>
<path d="M298.166 1814.27C316.356 1812.6 363.54 1799.48 406.752 1760.36" stroke="white" stroke-width="16" stroke-linecap="round"/>
<path d="M1267 1193.51C1282.41 1214.98 1296.48 1231.59 1317.6 1247.08" stroke="white" stroke-width="15" stroke-linecap="round"/>
<path d="M1296.76 1142.91C1307.16 1157.52 1318.15 1170.96 1329.5 1184.58" stroke="white" stroke-width="15" stroke-linecap="round"/>
<path d="M1356.29 1098.27C1369.77 1124.7 1380.35 1151.44 1392 1178.63" stroke="white" stroke-width="15" stroke-linecap="round"/>
<path d="M1461 1438.12C1452.54 1415.87 1443.84 1393.9 1436.4 1371.5" stroke="white" stroke-width="15" stroke-linecap="round"/>
<path d="M1554.13 1377.43C1536.72 1363.84 1517.45 1353.21 1500.02 1341.7" stroke="white" stroke-width="15" stroke-linecap="round"/>
<path d="M1541.75 1297.97C1556.5 1296.92 1570.47 1295.13 1584.89 1292.7" stroke="white" stroke-width="15" stroke-linecap="round"/>
<path d="M801.904 1227.69C801.904 1227.69 777.334 1203.39 755.812 1199.2" stroke="white" stroke-width="16" stroke-linecap="round"/>
<path d="M825.687 1220.67C825.687 1220.67 830.13 1164.84 839.494 1152.27" stroke="white" stroke-width="16" stroke-linecap="round"/>
<path d="M792.07 1258.67C792.07 1258.67 755.546 1253.67 748.004 1258.92" stroke="white" stroke-width="16" stroke-linecap="round"/>
<path d="M1010.09 1307.09C1010.09 1307.09 1036.7 1298.93 1077.13 1333.49" stroke="white" stroke-width="16" stroke-linecap="round"/>
<path d="M995.831 1325.95C995.831 1325.95 1011.14 1361.36 1010.15 1377.07" stroke="white" stroke-width="16" stroke-linecap="round"/>
<path d="M1006.12 1278.42C1006.12 1278.42 1027.07 1278.42 1044.15 1256.16" stroke="white" stroke-width="16" stroke-linecap="round"/>
<path d="M346.761 1144.2C303.259 1117.45 262.436 1112.5 247.463 1113.36" stroke="white" stroke-width="16" stroke-linecap="round"/>
<path d="M455.825 1306.47C487.497 1305.71 510.931 1315.8 518.689 1320.94" stroke="white" stroke-width="16" stroke-linecap="round"/>
<path d="M319.902 1205.24C266.059 1171.46 215.533 1165.2 197 1166.29" stroke="white" stroke-width="16" stroke-linecap="round"/>
<path d="M448.9 1378.82C494.066 1377.33 527.35 1391.55 538.346 1398.85" stroke="white" stroke-width="16" stroke-linecap="round"/>
<path d="M331.297 1170.24C307.763 1152.65 285.679 1149.39 277.578 1149.96" stroke="white" stroke-width="16" stroke-linecap="round"/>
<path d="M448.5 1343.57C510.58 1336.41 554.657 1354.05 568.936 1363.76" stroke="white" stroke-width="16" stroke-linecap="round"/>
<path d="M1089.08 753.607C1161.16 723.453 1204.53 827.867 1208.97 828.317C1213.41 828.768 1271.53 719.853 1327.39 745.057C1383.26 770.26 1223.61 972.566 1208.97 962.938C1150.06 924.185 1017 783.761 1089.08 753.607Z" stroke="white" stroke-width="15" stroke-linecap="round"/>
<path d="M626.342 752.213C686.219 722.45 750.271 836.85 750.271 836.85C750.271 836.85 827.106 723.757 879.091 752.213C931.076 780.669 766.516 967.525 750.271 956.829C684.883 913.776 572.574 778.938 626.342 752.213Z" stroke="white" stroke-width="15" stroke-linecap="round"/>
<path d="M237.416 770.472C286.415 744.972 309.985 833.972 319.95 842.472C329.915 850.972 358.796 747.776 414.856 782.374C470.915 816.972 324.751 947.894 310.915 944.972C293.62 941.32 188.417 795.972 237.416 770.472Z" stroke="white" stroke-width="15" stroke-linecap="round"/>
<path d="M1210.18 425C1221.5 463.74 1237.34 553.576 1210.18 603" stroke="white" stroke-width="15" stroke-linecap="round"/>
<path d="M1150.18 524C1183.34 515.592 1262.96 500.3 1316.18 506.401" stroke="white" stroke-width="15" stroke-linecap="round"/>
<path d="M1260.18 432C1242.38 474.965 1199.66 564.316 1171.18 578" stroke="white" stroke-width="15" stroke-linecap="round"/>
<path d="M1167.18 463C1188.37 474.854 1235.05 508.25 1252.18 547" stroke="white" stroke-width="15" stroke-linecap="round"/>
<path d="M932.519 430C932.519 430 918.519 495 932.519 598" stroke="white" stroke-width="16" stroke-linecap="round"/>
<path d="M874.52 520.5C916.52 522.688 968.02 520.499 968.02 520.499" stroke="white" stroke-width="16" stroke-linecap="round"/>
<path d="M881.678 566.922C932.891 535.154 954.33 469.729 954.33 469.729" stroke="white" stroke-width="16" stroke-linecap="round"/>
<path d="M850.68 456.948C908.134 473.229 961.774 570.268 961.774 570.268" stroke="white" stroke-width="16" stroke-linecap="round"/>
<path d="M594.681 438.271C594.681 438.271 580.681 503.271 594.681 606.271" stroke="white" stroke-width="16" stroke-linecap="round"/>
<path d="M536.682 528.77C578.682 519.771 630.182 528.77 630.182 528.77" stroke="white" stroke-width="16" stroke-linecap="round"/>
<path d="M556.127 582.855C590.682 497.271 671.68 428.271 671.68 428.271" stroke="white" stroke-width="16" stroke-linecap="round"/>
<path d="M527.681 459.771C563.181 513.27 662.791 597.59 662.791 597.59" stroke="white" stroke-width="16" stroke-linecap="round"/>
<path d="M267.841 438.271C267.841 438.271 253.841 503.271 267.841 606.271" stroke="white" stroke-width="16" stroke-linecap="round"/>
<path d="M209.842 528.77C251.842 519.771 303.342 528.77 303.342 528.77" stroke="white" stroke-width="16" stroke-linecap="round"/>
<path d="M229.287 582.855C263.842 497.271 344.84 428.271 344.84 428.271" stroke="white" stroke-width="16" stroke-linecap="round"/>
<path d="M200.841 459.771C236.341 513.27 335.951 597.59 335.951 597.59" stroke="white" stroke-width="16" stroke-linecap="round"/>
<path d="M1266 104C1262.49 139.333 1244.78 210 1202 210" stroke="white" stroke-width="15" stroke-linecap="round"/>
<path d="M1266 287C1270 258.333 1290.2 201 1339 201" stroke="white" stroke-width="15" stroke-linecap="round"/>
<path d="M1266 103C1270 135.667 1290.2 201 1339 201" stroke="white" stroke-width="15" stroke-linecap="round"/>
<path d="M1266 287C1262.49 261.333 1244.78 210 1202 210" stroke="white" stroke-width="15" stroke-linecap="round"/>
<path d="M950 104C944.356 130 915.855 182 847 182" stroke="white" stroke-width="15" stroke-linecap="round"/>
<path d="M950 287C954 261.333 974.2 210 1023 210" stroke="white" stroke-width="15" stroke-linecap="round"/>
<path d="M950 103C954 138.667 974.2 210 1023 210" stroke="white" stroke-width="15" stroke-linecap="round"/>
<path d="M950 287C944.356 252 915.855 182 847 182" stroke="white" stroke-width="15" stroke-linecap="round"/>
<path d="M595 104C591 115.333 570.8 138 522 138" stroke="white" stroke-width="15" stroke-linecap="round"/>
<path d="M595 287C599 248.333 619.2 171 668 171" stroke="white" stroke-width="15" stroke-linecap="round"/>
<path d="M595 103C599 125.667 619.2 171 668 171" stroke="white" stroke-width="15" stroke-linecap="round"/>
<path d="M595 287C591 237.333 570.8 138 522 138" stroke="white" stroke-width="15" stroke-linecap="round"/>
<path d="M270 104C266 139.333 245.8 210 197 210" stroke="white" stroke-width="15" stroke-linecap="round"/>
<path d="M270 287C274 248.333 294.2 171 343 171" stroke="white" stroke-width="15" stroke-linecap="round"/>
<path d="M270 103C274 125.667 294.2 171 343 171" stroke="white" stroke-width="15" stroke-linecap="round"/>
<path d="M270 287C266 261.667 245.8 211 197 211" stroke="white" stroke-width="15" stroke-linecap="round"/>
</g>
<defs>
<filter id="filter0_dd_1440_542" x="-44" y="-38" width="1791" height="3941" filterUnits="userSpaceOnUse" color-interpolation-filters="sRGB">
<feFlood flood-opacity="0" result="BackgroundImageFix"/>
<feColorMatrix in="SourceAlpha" type="matrix" values="0 0 0 0 0 0 0 0 0 0 0 0 0 0 0 0 0 0 127 0" result="hardAlpha"/>
<feOffset dy="2"/>
<feGaussianBlur stdDeviation="3"/>
<feComposite in2="hardAlpha" operator="out"/>
<feColorMatrix type="matrix" values="0 0 0 0 0.0901961 0 0 0 0 0.0588235 0 0 0 0 0.286275 0 0 0 0.16 0"/>
<feBlend mode="normal" in2="BackgroundImageFix" result="effect1_dropShadow_1440_542"/>
<feColorMatrix in="SourceAlpha" type="matrix" values="0 0 0 0 0 0 0 0 0 0 0 0 0 0 0 0 0 0 127 0" result="hardAlpha"/>
<feOffset dy="6"/>
<feGaussianBlur stdDeviation="22"/>
<feComposite in2="hardAlpha" operator="out"/>
<feColorMatrix type="matrix" values="0 0 0 0 0.176535 0 0 0 0 0.128465 0 0 0 0 0.476969 0 0 0 0.1 0"/>
<feBlend mode="normal" in2="effect1_dropShadow_1440_542" result="effect2_dropShadow_1440_542"/>
<feBlend mode="normal" in="SourceGraphic" in2="effect2_dropShadow_1440_542" result="shape"/>
</filter>
</defs>
</svg>
