<svg width="1936" height="1080" viewBox="0 0 1936 1080" fill="none" xmlns="http://www.w3.org/2000/svg">
<path d="M441.396 -42.2275V264.227L176 417.452L-89.3965 264.227V-42.2275L176 -195.453L441.396 -42.2275Z" stroke="white" stroke-width="20" stroke-linecap="round"/>
<path d="M179.494 394.055V93.884L-65.1209 -32.2747" stroke="white" stroke-width="20" stroke-linecap="round"/>
<path d="M179.495 98.1868L414.791 -32.2747" stroke="white" stroke-width="20" stroke-linecap="round"/>
<path d="M2083.31 407.772V640.227L1882 756.452L1680.69 640.227V407.772L1882 291.547L2083.31 407.772Z" stroke="white" stroke-width="20" stroke-linecap="round"/>
<path d="M1884.68 741.187V510.867L1696.99 414.066" stroke="white" stroke-width="20" stroke-linecap="round"/>
<path d="M1884.68 514.168L2065.22 414.066" stroke="white" stroke-width="20" stroke-linecap="round"/>
<path d="M1461.31 27.3857V168.613L1339 239.226L1216.69 168.613V27.3857L1339 -43.2266L1461.31 27.3857Z" stroke="white" stroke-width="10" stroke-linecap="round"/>
<path d="M1340.62 228.846V90.0879L1227.54 31.7692" stroke="white" stroke-width="10" stroke-linecap="round"/>
<path d="M1340.62 92.0769L1449.38 31.7692" stroke="white" stroke-width="10" stroke-linecap="round"/>
<path d="M1860.31 741.386V882.613L1738 953.226L1615.69 882.613V741.386L1738 670.773L1860.31 741.386Z" stroke="white" stroke-width="10" stroke-linecap="round"/>
<path d="M1739.62 942.846V804.088L1626.54 745.769" stroke="white" stroke-width="10" stroke-linecap="round"/>
<path d="M1739.62 806.077L1848.38 745.769" stroke="white" stroke-width="10" stroke-linecap="round"/>
<path d="M1508.31 944.386V1085.61L1386 1156.23L1263.69 1085.61V944.386L1386 873.773L1508.31 944.386Z" stroke="white" stroke-width="10" stroke-linecap="round"/>
<path d="M1387.62 1145.85V1007.09L1274.54 948.769" stroke="white" stroke-width="10" stroke-linecap="round"/>
<path d="M1387.62 1009.08L1496.38 948.769" stroke="white" stroke-width="10" stroke-linecap="round"/>
<path d="M822.306 1016.39V1157.61L700 1228.23L577.694 1157.61V1016.39L700 945.773L822.306 1016.39Z" stroke="white" stroke-width="10" stroke-linecap="round"/>
<path d="M701.615 1217.85V1079.09L588.538 1020.77" stroke="white" stroke-width="10" stroke-linecap="round"/>
<path d="M701.615 1081.08L810.385 1020.77" stroke="white" stroke-width="10" stroke-linecap="round"/>
<path d="M403.306 505.386V646.613L281 717.226L158.694 646.613V505.386L281 434.773L403.306 505.386Z" stroke="white" stroke-width="10" stroke-linecap="round"/>
<path d="M282.615 706.846V568.088L169.538 509.769" stroke="white" stroke-width="10" stroke-linecap="round"/>
<path d="M282.615 570.077L391.385 509.769" stroke="white" stroke-width="10" stroke-linecap="round"/>
<path d="M1894.31 -130.614V10.6133L1772 81.2256L1649.69 10.6133V-130.614L1772 -201.227L1894.31 -130.614Z" stroke="white" stroke-width="10" stroke-linecap="round"/>
<path d="M1773.62 70.8461V-67.9121L1660.54 -126.231" stroke="white" stroke-width="10" stroke-linecap="round"/>
<path d="M1170.46 926.442V983.557L1121 1012.11L1071.54 983.557V926.442L1121 897.887L1170.46 926.442Z" stroke="white" stroke-width="5" stroke-linecap="round"/>
<path d="M1121.66 1008.41V951.771L1075.51 927.967" stroke="white" stroke-width="5" stroke-linecap="round"/>
<path d="M1121.66 952.582L1166.05 927.967" stroke="white" stroke-width="5" stroke-linecap="round"/>
<path d="M1495.46 900.442V957.557L1446 986.112L1396.54 957.557V900.442L1446 871.887L1495.46 900.442Z" stroke="white" stroke-width="5" stroke-linecap="round"/>
<path d="M1446.66 982.407V925.771L1400.51 901.967" stroke="white" stroke-width="5" stroke-linecap="round"/>
<path d="M1446.66 926.582L1491.05 901.967" stroke="white" stroke-width="5" stroke-linecap="round"/>
<path d="M1806.46 340.442V397.557L1757 426.112L1707.54 397.557V340.442L1757 311.887L1806.46 340.442Z" stroke="white" stroke-width="5" stroke-linecap="round"/>
<path d="M1757.66 422.407V365.771L1711.51 341.967" stroke="white" stroke-width="5" stroke-linecap="round"/>
<path d="M1757.66 366.582L1802.05 341.967" stroke="white" stroke-width="5" stroke-linecap="round"/>
<path d="M1866.46 967.442V1024.56L1817 1053.11L1767.54 1024.56V967.442L1817 938.887L1866.46 967.442Z" stroke="white" stroke-width="5" stroke-linecap="round"/>
<path d="M1817.66 1049.41V992.771L1771.51 968.967" stroke="white" stroke-width="5" stroke-linecap="round"/>
<path d="M1817.66 993.582L1862.05 968.967" stroke="white" stroke-width="5" stroke-linecap="round"/>
<path d="M1761.46 140.442V197.557L1712 226.112L1662.54 197.557V140.442L1712 111.887L1761.46 140.442Z" stroke="white" stroke-width="5" stroke-linecap="round"/>
<path d="M1712.66 222.407V165.771L1666.51 141.967" stroke="white" stroke-width="5" stroke-linecap="round"/>
<path d="M1712.66 166.582L1757.05 141.967" stroke="white" stroke-width="5" stroke-linecap="round"/>
<path d="M696.462 80.4424V137.557L647 166.112L597.538 137.557V80.4424L647 51.8867L696.462 80.4424Z" stroke="white" stroke-width="5" stroke-linecap="round"/>
<path d="M647.659 162.407V105.771L601.505 81.967" stroke="white" stroke-width="5" stroke-linecap="round"/>
<path d="M647.659 106.582L692.055 81.967" stroke="white" stroke-width="5" stroke-linecap="round"/>
<path d="M913.462 -17.5576V39.5566L864 68.1123L814.538 39.5566V-17.5576L864 -46.1133L913.462 -17.5576Z" stroke="white" stroke-width="5" stroke-linecap="round"/>
<path d="M864.659 64.4066V7.77057L818.505 -16.033" stroke="white" stroke-width="5" stroke-linecap="round"/>
<path d="M864.659 8.58241L909.055 -16.033" stroke="white" stroke-width="5" stroke-linecap="round"/>
<path d="M138.462 488.442V545.557L89 574.112L39.5381 545.557V488.442L89 459.887L138.462 488.442Z" stroke="white" stroke-width="5" stroke-linecap="round"/>
<path d="M89.6593 570.407V513.771L43.5055 489.967" stroke="white" stroke-width="5" stroke-linecap="round"/>
<path d="M89.6594 514.582L134.055 489.967" stroke="white" stroke-width="5" stroke-linecap="round"/>
<path d="M1275.46 142.442V199.557L1226 228.112L1176.54 199.557V142.442L1226 113.887L1275.46 142.442Z" stroke="white" stroke-width="5" stroke-linecap="round"/>
<path d="M1226.66 224.407V167.771L1180.51 143.967" stroke="white" stroke-width="5" stroke-linecap="round"/>
<path d="M1226.66 168.582L1271.05 143.967" stroke="white" stroke-width="5" stroke-linecap="round"/>
<path d="M637.645 795.022V1233.98L257.5 1453.45L-122.645 1233.98V795.022L257.5 575.547L637.645 795.022Z" stroke="white" stroke-width="20" stroke-linecap="round"/>
<path d="M262.451 1415.49V990.252L-84.0879 811.527" stroke="white" stroke-width="20" stroke-linecap="round"/>
<path d="M262.451 996.348L595.788 811.527" stroke="white" stroke-width="20" stroke-linecap="round"/>
</svg>