<svg width="16" height="15" viewBox="0 0 16 15" fill="none" xmlns="http://www.w3.org/2000/svg">
<path d="M16 7.6C16 6.55 15.15 6 14 6H10.65C10.9 5.1 11 4.25 11 3.5C11 0.6 10.2 0 9.5 0C9.05 0 8.7 0.0500002 8.25 0.3C8.1 0.4 8.05 0.5 8 0.65L7.5 3.35C6.95 4.75 5.6 6 4.5 6.85V14C4.9 14 5.3 14.2 5.8 14.45C6.35 14.7 6.9 15 7.5 15H12.25C13.25 15 14 14.2 14 13.5C14 13.35 14 13.25 13.95 13.15C14.55 12.9 15 12.4 15 11.75C15 11.45 14.95 11.2 14.85 10.95C15.25 10.7 15.6 10.25 15.6 9.75C15.6 9.45 15.45 9.15 15.3 8.9C15.7 8.6 16 8.1 16 7.6ZM14.95 7.6C14.95 8.25 14.3 8.3 14.2 8.6C14.1 8.95 14.6 9.05 14.6 9.65C14.6 10.25 13.85 10.25 13.75 10.6C13.65 11 14 11.1 14 11.7V11.8C13.9 12.3 13.15 12.35 13 12.55C12.85 12.8 13 12.9 13 13.45C13 13.75 12.65 13.95 12.25 13.95H7.5C7.1 13.95 6.7 13.75 6.2 13.5C5.8 13.3 5.4 13.1 5 13V7.75C6.25 6.8 7.85 5.4 8.45 3.65V3.55L8.9 1.05C9.1 1 9.25 1 9.5 1C9.6 1 10 1.6 10 3.5C10 4.25 9.85 5.05 9.6 6H9.5C9.2 6 9 6.2 9 6.5C9 6.8 9.2 7 9.5 7H14C14.5 7 14.95 7.25 14.95 7.6Z" fill="white"/>
<path d="M4 15H1C0.45 15 0 14.55 0 14V7C0 6.45 0.45 6 1 6H4C4.55 6 5 6.45 5 7V14C5 14.55 4.55 15 4 15ZM1 7V14H4V7H1Z" fill="white"/>
</svg>
