<svg width="15" height="15" viewBox="0 0 15 15" fill="none" xmlns="http://www.w3.org/2000/svg">
<path d="M8 1H3C2.73478 1 2.48043 1.10536 2.29289 1.29289C2.10536 1.48043 2 1.73478 2 2V11L1 14L5 13H13C13.2652 13 13.5196 12.8946 13.7071 12.7071C13.8946 12.5196 14 12.2652 14 12V7" stroke="#FFFBFB" stroke-linecap="round" stroke-linejoin="round"/>
<path d="M8.863 8.637L5.863 9.177L6.363 6.137L11.093 1.427C11.186 1.33327 11.2966 1.25888 11.4184 1.20811C11.5403 1.15734 11.671 1.1312 11.803 1.1312C11.935 1.1312 12.0657 1.15734 12.1876 1.20811C12.3094 1.25888 12.42 1.33327 12.513 1.427L13.573 2.487C13.6667 2.57996 13.7411 2.69056 13.7919 2.81242C13.8427 2.93428 13.8688 3.06499 13.8688 3.197C13.8688 3.32901 13.8427 3.45972 13.7919 3.58158C13.7411 3.70344 13.6667 3.81404 13.573 3.907L8.863 8.637Z" stroke="#FFF8F8" stroke-linecap="round" stroke-linejoin="round"/>
</svg>
